<?xml version="1.0" encoding="UTF-8" standalone="no"?>
<!-- Created with Inkscape (http://www.inkscape.org/) -->

<svg
   width="400"
   height="350"
   viewBox="0 0 105.83334 92.604167"
   version="1.1"
   id="svg5"
   inkscape:version="1.1.2 (0a00cf5339, 2022-02-04)"
   sodipodi:docname="out-03.svg"
   xmlns:inkscape="http://www.inkscape.org/namespaces/inkscape"
   xmlns:sodipodi="http://sodipodi.sourceforge.net/DTD/sodipodi-0.dtd"
   xmlns="http://www.w3.org/2000/svg"
   xmlns:svg="http://www.w3.org/2000/svg">
  <sodipodi:namedview
     id="namedview7"
     pagecolor="#ffffff"
     bordercolor="#666666"
     borderopacity="1.0"
     inkscape:pageshadow="2"
     inkscape:pageopacity="0"
     inkscape:pagecheckerboard="true"
     inkscape:document-units="px"
     showgrid="false"
     inkscape:zoom="1.2838905"
     inkscape:cx="48.290723"
     inkscape:cy="138.25167"
     inkscape:window-width="1920"
     inkscape:window-height="1080"
     inkscape:window-x="0"
     inkscape:window-y="0"
     inkscape:window-maximized="1"
     inkscape:current-layer="g81"
     inkscape:snap-center="true"
     inkscape:snap-grids="true"
     units="px"
     showborder="true"
     borderlayer="true"
     inkscape:showpageshadow="false"
     inkscape:snap-others="true"
     inkscape:snap-object-midpoints="true"
     inkscape:snap-page="false"
     scale-x="1"
     viewbox-width="400"
     viewbox-height="350"
     inkscape:snap-text-baseline="true"
     inkscape:snap-smooth-nodes="true"
     inkscape:snap-intersection-paths="true"
     inkscape:object-paths="true"
     inkscape:snap-midpoints="true"
     inkscape:object-nodes="true"
     inkscape:snap-nodes="true"
     inkscape:snap-global="false"
     inkscape:snap-bbox="false"
     inkscape:bbox-paths="true"
     inkscape:bbox-nodes="true"
     inkscape:snap-bbox-edge-midpoints="true"
     inkscape:snap-bbox-midpoints="true" />
  <defs
     id="defs2">
    <rect
       x="497.48459"
       y="220.35052"
       width="247.07487"
       height="169.71802"
       id="rect126830" />
  </defs>
  <g
     inkscape:label="Layer 1"
     inkscape:groupmode="layer"
     id="layer1">
    <g
       id="g79"
       transform="matrix(0.35277777,0,0,-0.35277777,5.3069253,8.5921664)">
      <g
         id="g81"
         inkscape:transform-center-x="125.45006"
         inkscape:transform-center-y="-22.903373"
         transform="matrix(4,0,0,4,44.448707,-72.283092)">
        <g
           id="g83"
           style="fill:#ffffff">
          <text
             xml:space="preserve"
             style="font-size:1.25px;line-height:1.25;font-family:sans-serif;stroke-width:0.1875;fill:#ffffff"
             x="-20.609663"
             y="-30.459957"
             id="text59482"
             transform="scale(1,-1)"><tspan
               sodipodi:role="line"
               id="tspan59480"
               style="stroke-width:0.1875;fill:#ffffff"
               x="-20.609663"
               y="-30.459957" /></text>
          <text
             xml:space="preserve"
             style="font-style:normal;font-variant:normal;font-weight:normal;font-stretch:normal;font-size:5.49999px;line-height:1.05;font-family:NimbusSanL;-inkscape-font-specification:NimbusSanL;stroke-width:0.188093;fill:#ffffff"
             x="-9.2532911"
             y="22.241938"
             id="text86136-3"
             transform="scale(1.0000003,-0.99999971)"><tspan
               sodipodi:role="line"
               style="font-style:normal;font-variant:normal;font-weight:bold;font-stretch:normal;font-size:5.49999px;font-family:FontAwesome;-inkscape-font-specification:'FontAwesome Bold';stroke-width:0.188093;fill:#ffffff"
               x="-9.2532911"
               y="22.241938"
               id="tspan92298-4">Control de plagas:</tspan><tspan
               sodipodi:role="line"
               style="font-style:normal;font-variant:normal;font-weight:bold;font-stretch:normal;font-size:5.49999px;font-family:FontAwesome;-inkscape-font-specification:'FontAwesome Bold';stroke-width:0.188093;fill:#ffffff"
               x="-9.2532911"
               y="28.5525"
               id="tspan207536">•Fumigación </tspan><tspan
               sodipodi:role="line"
               style="font-style:normal;font-variant:normal;font-weight:bold;font-stretch:normal;font-size:5.49999px;font-family:FontAwesome;-inkscape-font-specification:'FontAwesome Bold';stroke-width:0.188093;fill:#ffffff"
               x="-9.2532911"
               y="34.863064"
               id="tspan47103">•Manejo de residuos</tspan><tspan
               sodipodi:role="line"
               style="font-style:normal;font-variant:normal;font-weight:bold;font-stretch:normal;font-size:3.25px;font-family:FontAwesome;-inkscape-font-specification:'FontAwesome Bold';stroke-width:0.188093;fill:#ffffff"
               x="-9.2532911"
               y="40.638054"
               id="tspan54673">Apoyo a la agricultura con drones </tspan><tspan
               sodipodi:role="line"
               style="font-style:normal;font-variant:normal;font-weight:bold;font-stretch:normal;font-size:3.25px;font-family:FontAwesome;-inkscape-font-specification:'FontAwesome Bold';stroke-width:0.188093;fill:#ffffff"
               x="-9.2532911"
               y="46.413044"
               id="tspan45163" /><tspan
               sodipodi:role="line"
               style="font-style:normal;font-variant:normal;font-weight:bold;font-stretch:normal;font-size:5.49999px;font-family:FontAwesome;-inkscape-font-specification:'FontAwesome Bold';stroke-width:0.188093;fill:#ffffff"
               x="-9.2532911"
               y="52.188034"
               id="tspan197802" /></text>
          <text
             xml:space="preserve"
             transform="matrix(0.1875,0,0,-0.1875,-14.87299,24.15971)"
             id="text126828"
             style="font-size:16px;line-height:1.25;font-family:sans-serif;white-space:pre;shape-inside:url(#rect126830);fill:#ffffff" />
          <path
             id="path35108"
             style="fill:#ffffff;stroke-width:0.75"
             inkscape:transform-center-x="-114.56818"
             inkscape:transform-center-y="-14.466529"
             d="M 325 0 A 75.000001 -75.000001 0 0 0 305.12305 19.876953 A 6.5624999 26.250001 45 0 1 305.58008 19.808594 A 6.5624999 26.250001 45 0 1 307.49805 20.375 A 6.5624999 26.250001 45 0 1 298.06836 38.787109 L 309.24219 49.960938 A 52.500001 -26.250001 0 0 1 325 48.75 A 52.500001 -26.250001 0 0 1 340.74805 49.970703 L 351.93359 38.787109 A 26.250001 6.5624999 45 0 1 342.50195 20.375 A 26.250001 6.5624999 45 0 1 344.84961 19.849609 A 75.000001 -75.000001 0 0 0 325 0 z M 344.84961 19.849609 A 75.000001 -75.000001 0 0 1 380.14844 55.148438 A 26.250001 6.5624999 45 0 0 365.70508 34.294922 A 26.250001 6.5624999 45 0 0 344.84961 19.849609 z M 380.14844 55.148438 A 26.250001 6.5624999 45 0 1 379.625 57.498047 A 26.250001 6.5624999 45 0 1 361.21484 48.068359 L 355.60547 53.675781 A 52.500001 -26.250001 0 0 1 377.5 75 A 52.500001 -26.250001 0 0 1 355.60742 96.326172 L 361.21484 101.93359 A 6.5624999 26.250001 45 0 1 379.625 92.501953 A 6.5624999 26.250001 45 0 1 380.14844 94.851562 A 75.000001 -75.000001 0 0 0 400 75 A 75.000001 -75.000001 0 0 0 380.14844 55.148438 z M 380.14844 94.851562 A 75.000001 -75.000001 0 0 1 344.85156 130.14844 A 6.5624999 26.250001 45 0 0 365.70508 115.70508 A 6.5624999 26.250001 45 0 0 380.14844 94.851562 z M 344.85156 130.14844 A 6.5624999 26.250001 45 0 1 342.50195 129.625 A 6.5624999 26.250001 45 0 1 351.93359 111.21484 L 340.75781 100.03906 A 52.500001 -26.250001 0 0 1 325 101.25 A 52.500001 -26.250001 0 0 1 309.25195 100.0293 L 298.06836 111.21289 A 26.250001 6.5624999 45 0 1 307.49805 129.625 A 26.250001 6.5624999 45 0 1 305.14844 130.14844 A 75.000001 -75.000001 0 0 0 325 150 A 75.000001 -75.000001 0 0 0 344.85156 130.14844 z M 305.14844 130.14844 A 75.000001 -75.000001 0 0 1 269.84961 94.849609 A 26.250001 6.5624999 45 0 0 284.29492 115.70508 A 26.250001 6.5624999 45 0 0 305.14844 130.14844 z M 269.84961 94.849609 A 26.250001 6.5624999 45 0 1 270.375 92.501953 A 26.250001 6.5624999 45 0 1 288.78711 101.93359 L 294.39453 96.324219 A 52.500001 -26.250001 0 0 1 272.5 75 A 52.500001 -26.250001 0 0 1 294.39453 53.675781 L 288.78711 48.068359 A 6.5624999 26.250001 45 0 1 270.375 57.498047 A 6.5624999 26.250001 45 0 1 269.84961 55.150391 A 75.000001 -75.000001 0 0 0 250 75 A 75.000001 -75.000001 0 0 0 269.84961 94.849609 z M 269.84961 55.150391 A 75.000001 -75.000001 0 0 1 305.12305 19.876953 A 6.5624999 26.250001 45 0 0 284.29492 34.294922 A 6.5624999 26.250001 45 0 0 269.84961 55.150391 z "
             transform="matrix(0.18750001,0,0,-0.18750001,-14.87299,24.15971)" />
          <path
             id="path35108-0"
             style="fill:#ffffff;stroke-width:0.500002"
             d="M 236.9375 119.16992 A 50 -49.999999 0 0 0 223.68555 132.42188 A 4.3749999 17.5 45 0 1 223.99023 132.37695 A 4.3749999 17.5 45 0 1 225.26953 132.75391 A 4.3749999 17.5 45 0 1 218.98242 145.0293 L 226.43164 152.47852 A 35.000001 -17.5 0 0 1 236.9375 151.66992 A 35.000001 -17.5 0 0 1 247.43555 152.48438 L 254.89258 145.02734 A 17.5 4.3749999 45 0 1 248.60547 132.75391 A 17.5 4.3749999 45 0 1 250.17188 132.4043 A 50 -49.999999 0 0 0 236.9375 119.16992 z M 250.17188 132.4043 A 50 -49.999999 0 0 1 273.70312 155.93555 A 17.5 4.3749999 45 0 0 264.07422 142.0332 A 17.5 4.3749999 45 0 0 250.17188 132.4043 z M 273.70312 155.93555 A 17.5 4.3749999 45 0 1 273.35352 157.50195 A 17.5 4.3749999 45 0 1 261.08008 151.21484 L 257.33984 154.95508 A 35.000001 -17.5 0 0 1 271.9375 169.16992 A 35.000001 -17.5 0 0 1 257.3418 183.38672 L 261.08008 187.125 A 4.3749999 17.5 45 0 1 273.35352 180.83789 A 4.3749999 17.5 45 0 1 273.70312 182.4043 A 50 -49.999999 0 0 0 286.9375 169.16992 A 50 -49.999999 0 0 0 273.70312 155.93555 z M 273.70312 182.4043 A 50 -49.999999 0 0 1 250.17188 205.93555 A 4.3749999 17.5 45 0 0 264.07422 196.30664 A 4.3749999 17.5 45 0 0 273.70312 182.4043 z M 250.17188 205.93555 A 4.3749999 17.5 45 0 1 248.60547 205.58789 A 4.3749999 17.5 45 0 1 254.89258 193.3125 L 247.44141 185.86328 A 35.000001 -17.5 0 0 1 236.9375 186.66992 A 35.000001 -17.5 0 0 1 226.4375 185.85742 L 218.98242 193.3125 A 17.5 4.3749999 45 0 1 225.26953 205.58789 A 17.5 4.3749999 45 0 1 223.70312 205.93555 A 50 -49.999999 0 0 0 236.9375 219.16992 A 50 -49.999999 0 0 0 250.17188 205.93555 z M 223.70312 205.93555 A 50 -49.999999 0 0 1 200.16797 182.40039 A 17.5 4.3749999 45 0 0 209.80078 196.30664 A 17.5 4.3749999 45 0 0 223.70312 205.93555 z M 200.16797 182.40039 A 17.5 4.3749999 45 0 1 200.51953 180.83789 A 17.5 4.3749999 45 0 1 212.79492 187.125 L 216.5332 183.38672 A 35.000001 -17.5 0 0 1 201.9375 169.16992 A 35.000001 -17.5 0 0 1 216.5332 154.95312 L 212.79492 151.21484 A 4.3749999 17.5 45 0 1 200.51953 157.50195 A 4.3749999 17.5 45 0 1 200.16797 155.94141 A 50 -49.999999 0 0 0 186.9375 169.16992 A 50 -49.999999 0 0 0 200.16797 182.40039 z M 223.68555 132.42188 A 4.3749999 17.5 45 0 0 209.80078 142.0332 A 4.3749999 17.5 45 0 0 200.16797 155.93945 A 50 -49.999999 0 0 1 223.68555 132.42188 z "
             transform="matrix(0.18750001,0,0,-0.18750001,-14.87299,24.15971)" />
          <g
             id="g30"
             transform="translate(37.922634,6.0171919)"
             style="fill:#ffffff">
            <path
               id="text86136"
               style="font-style:normal;font-variant:normal;font-weight:normal;font-stretch:normal;font-size:7px;line-height:0.85;font-family:NimbusSanL;-inkscape-font-specification:NimbusSanL;fill:#ffffff;stroke-width:0.188094"
               d="m -33.692963,17.746868 a 18.750001,18.750001 0 0 1 -4.969118,-4.969117 6.5625005,1.6406251 45 0 0 0.113893,0.01685 6.5625005,1.6406251 45 0 0 0.479736,-0.141357 6.5625005,1.6406251 45 0 0 -2.357299,-4.603272 l 2.793456,-2.7934571 a 13.125001,6.5625005 0 0 0 3.939332,0.3028564 13.125001,6.5625005 0 0 0 3.937133,-0.3050537 l 2.79602,2.7960206 a 1.6406251,6.5625005 45 0 0 -2.357664,4.6029058 1.6406251,6.5625005 45 0 0 0.586669,0.131469 18.750001,18.750001 0 0 1 -4.962158,4.962159 z m 4.962158,-4.962159 a 18.750001,18.750001 0 0 0 8.824952,-8.8249512 1.6406251,6.5625005 45 0 1 -3.61084,5.2133793 1.6406251,6.5625005 45 0 1 -5.214112,3.6115719 z m 8.824952,-8.8249512 a 1.6406251,6.5625005 45 0 0 -0.130738,-0.5874022 1.6406251,6.5625005 45 0 0 -4.602906,2.357666 l -1.402221,-1.4022217 a 13.125001,6.5625005 0 0 0 5.473756,-5.330933 13.125001,6.5625005 0 0 0 -5.47339,-5.3312991 l 1.401855,-1.4018555 a 6.5625005,1.6406251 45 0 0 4.602906,2.357666 6.5625005,1.6406251 45 0 0 0.130738,-0.5874022 18.750001,18.750001 0 0 1 4.962891,4.9628908 18.750001,18.750001 0 0 1 -4.962891,4.9628909 z m 0,-9.9257817 a 18.750001,18.750001 0 0 0 -8.824219,-8.8242191 6.5625005,1.6406251 45 0 1 5.213379,3.61084 6.5625005,1.6406251 45 0 1 3.61084,5.2133791 z m -8.824219,-8.8242191 a 6.5625005,1.6406251 45 0 0 -0.587402,0.130737 6.5625005,1.6406251 45 0 0 2.357664,4.602906 l -2.793823,2.793823 a 13.125001,6.5625005 0 0 0 -3.93933,-0.3028564 13.125001,6.5625005 0 0 0 -3.937135,0.3050537 l -2.795653,-2.7956543 a 1.6406251,6.5625005 45 0 0 2.357299,-4.603272 1.6406251,6.5625005 45 0 0 -0.587402,-0.130737 18.750001,18.750001 0 0 1 4.962891,-4.962891 18.750001,18.750001 0 0 1 4.962891,4.962891 z m -9.925782,0 a 18.750001,18.750001 0 0 0 -8.824952,8.8249514 1.6406251,6.5625005 45 0 1 3.611572,-5.2141114 1.6406251,6.5625005 45 0 1 5.21338,-3.61084 z m -8.824952,8.8249514 a 1.6406251,6.5625005 45 0 0 0.131469,0.5866699 1.6406251,6.5625005 45 0 0 4.602906,-2.357666 l 1.402223,1.4022217 a 13.125001,6.5625005 0 0 0 -5.473756,5.3309329 13.125001,6.5625005 0 0 0 5.473388,5.3312992 l -1.401855,1.4018555 a 6.5625005,1.6406251 45 0 0 -4.602906,-2.357666 6.5625005,1.6406251 45 0 0 -0.131469,0.5866699 18.750001,18.750001 0 0 1 -4.962158,-4.9621586 18.750001,18.750001 0 0 1 4.962158,-4.9621585 z m 0,9.9243171 a 18.750001,18.750001 0 0 0 8.818725,8.8187255 6.5625005,1.6406251 45 0 1 -5.207153,-3.6046139 6.5625005,1.6406251 45 0 1 -3.611572,-5.2141116 z m 18.45337,-2.2532961 v -5.3184818 h 1.223511 V 1.7057294 Z M -41.578218,1.5826825 c -0.849934,0 -1.523274,-0.2382401 -2.02002,-0.71447755 -0.496744,-0.47395882 -0.745239,-1.11893648 -0.745239,-1.93469255 0,-0.8134772 0.248495,-1.4580888 0.745239,-1.9343262 0.496746,-0.4739588 1.170086,-0.7111818 2.02002,-0.7111818 0.284831,0 0.558268,0.032145 0.820313,0.095947 0.262044,0.063802 0.513956,0.1581216 0.755493,0.2834474 v 1.0561523 c -0.243815,-0.1663412 -0.484456,-0.2880045 -0.721436,-0.3654784 -0.236979,-0.077474 -0.486491,-0.1164551 -0.748535,-0.1164551 -0.469401,0 -0.838542,0.1503903 -1.107422,0.4511719 -0.268879,0.3007815 -0.403199,0.7143549 -0.403199,1.2407226 0,0.52864632 0.13432,0.94360333 0.403199,1.24438488 0.26888,0.30078155 0.638021,0.4511719 1.107422,0.4511719 0.262044,0 0.511556,-0.038981 0.748535,-0.11645508 0.23698,-0.077474 0.477621,-0.19913723 0.721436,-0.36547854 V 1.203288 c -0.241537,0.1253256 -0.493449,0.2196451 -0.755493,0.2834472 -0.262045,0.063802 -0.535482,0.095947 -0.820313,0.095947 z m 7.475099,-0.092285 v -5.1031498 h 1.315796 v 1.7706301 h 0.868286 c 0.649412,0 1.14742,0.1435543 1.493773,0.4306641 0.348634,0.2893883 0.522951,0.70157816 0.522951,1.23706055 0,0.53320366 -0.174317,0.94335914 -0.522951,1.23046885 -0.346353,0.2893883 -0.844361,0.4343262 -1.493773,0.4343262 z m 1.315796,-0.95361338 h 0.728027 c 0.255208,0 0.452434,-0.0615233 0.591431,-0.18457033 0.138996,-0.12304699 0.208373,-0.29874654 0.208373,-0.52661134 0,-0.22786483 -0.06938,-0.40421532 -0.208373,-0.52954107 -0.138997,-0.12304689 -0.336223,-0.18457033 -0.591431,-0.18457033 h -0.728027 z m -4.357911,-0.22924805 c -0.660806,0 -1.177939,-0.17773406 -1.551636,-0.53320316 -0.371418,-0.35546915 -0.557006,-0.84765571 -0.557006,-1.47656261 0,-0.6289068 0.185588,-1.1210935 0.557006,-1.4765626 0.373697,-0.3554691 0.89083,-0.5332032 1.551636,-0.5332032 0.658528,0 1.172608,0.1777341 1.541747,0.5332032 0.371421,0.3554691 0.557008,0.8476558 0.557008,1.4765626 0,0.6289069 -0.185587,1.12109346 -0.557008,1.47656261 -0.369139,0.3554691 -0.883219,0.53320316 -1.541747,0.53320316 z m 12.147584,0 c -0.264323,0 -0.528525,-0.0170898 -0.792848,-0.0512695 -0.264322,-0.0319011 -0.527507,-0.0797525 -0.789551,-0.14355469 v -0.9331056 c 0.193686,0.10481795 0.4032,0.18343108 0.628785,0.23583995 0.225585,0.0524089 0.469279,0.0787354 0.731323,0.0787354 0.323567,0 0.561808,-0.0454507 0.714478,-0.13659675 0.152669,-0.0888673 0.228882,-0.23038727 0.228882,-0.42407228 v -0.095581 h -0.721069 c -0.660806,0 -1.14616,-0.1049396 -1.456056,-0.3145753 -0.307616,-0.2096355 -0.461424,-0.5387771 -0.461424,-0.9876709 0,-0.369141 0.123047,-0.6699216 0.36914,-0.9023438 0.248372,-0.2301433 0.570679,-0.345337 0.967163,-0.345337 0.293946,0 0.543458,0.052653 0.748536,0.1574708 0.205078,0.1070964 0.389647,0.2766111 0.55371,0.5090333 v -0.5672609 h 1.23413 v 2.1840823 c 0,0.61295621 -0.153808,1.05489063 -0.461424,1.32604976 -0.30534,0.27343777 -0.803346,0.41015627 -1.493775,0.41015621 z m -12.147584,-0.87487794 c 0.266601,0 0.470663,-0.0981038 0.611938,-0.29406751 0.141276,-0.19368512 0.212037,-0.47395802 0.212037,-0.84082032 0,-0.3668624 -0.07076,-0.6481525 -0.212037,-0.8441163 -0.141275,-0.193685 -0.345337,-0.2904052 -0.611938,-0.2904052 -0.271159,0 -0.478271,0.09672 -0.621827,0.2904052 -0.141275,0.1959638 -0.212036,0.4772539 -0.212036,0.8441163 0,0.3668623 0.07076,0.6471352 0.212036,0.84082032 0.143556,0.19596376 0.350668,0.29406751 0.621827,0.29406751 z M -24.912323,-1.890096 h 0.635742 v -0.1402589 c 0,-0.2483726 -0.07861,-0.4554847 -0.23584,-0.6218261 -0.157226,-0.1640627 -0.350668,-0.2460938 -0.580811,-0.2460938 -0.184569,0 -0.329509,0.04305 -0.434325,0.1296387 -0.10254,0.088867 -0.15381,0.2108968 -0.15381,0.3658447 0,0.1686201 0.06392,0.2961019 0.191529,0.3826905 0.129884,0.086589 0.322307,0.1300049 0.577515,0.1300049 z" />
          </g>
        </g>
      </g>
    </g>
  </g>
</svg>
