<?xml version="1.0" encoding="UTF-8" standalone="no"?>
<!-- Created with Inkscape (http://www.inkscape.org/) -->

<svg
   width="400"
   height="350"
   viewBox="0 0 105.83334 92.604167"
   version="1.1"
   id="svg5"
   inkscape:version="1.1.2 (0a00cf5339, 2022-02-04)"
   sodipodi:docname="Copla.svg"
   xmlns:inkscape="http://www.inkscape.org/namespaces/inkscape"
   xmlns:sodipodi="http://sodipodi.sourceforge.net/DTD/sodipodi-0.dtd"
   xmlns="http://www.w3.org/2000/svg"
   xmlns:svg="http://www.w3.org/2000/svg">
  <sodipodi:namedview
     id="namedview7"
     pagecolor="#ffffff"
     bordercolor="#666666"
     borderopacity="1.0"
     inkscape:pageshadow="2"
     inkscape:pageopacity="0"
     inkscape:pagecheckerboard="true"
     inkscape:document-units="px"
     showgrid="false"
     inkscape:zoom="1.4142136"
     inkscape:cx="120.20815"
     inkscape:cy="110.66221"
     inkscape:window-width="1908"
     inkscape:window-height="1068"
     inkscape:window-x="0"
     inkscape:window-y="0"
     inkscape:window-maximized="1"
     inkscape:current-layer="g83"
     inkscape:snap-center="true"
     inkscape:snap-grids="true"
     units="px"
     showborder="true"
     borderlayer="true"
     inkscape:showpageshadow="false"
     inkscape:snap-others="true"
     inkscape:snap-object-midpoints="true"
     inkscape:snap-page="false"
     scale-x="1"
     viewbox-width="400"
     viewbox-height="350"
     inkscape:snap-text-baseline="true"
     inkscape:snap-smooth-nodes="true"
     inkscape:snap-intersection-paths="true"
     inkscape:object-paths="true"
     inkscape:snap-midpoints="true"
     inkscape:object-nodes="true"
     inkscape:snap-nodes="false"
     inkscape:snap-global="true"
     inkscape:snap-bbox="true"
     inkscape:bbox-paths="true"
     inkscape:bbox-nodes="true"
     inkscape:snap-bbox-edge-midpoints="true"
     inkscape:snap-bbox-midpoints="true" />
  <defs
     id="defs2">
    <rect
       x="497.48459"
       y="220.35052"
       width="247.07487"
       height="169.71802"
       id="rect126830" />
  </defs>
  <g
     inkscape:label="Layer 1"
     inkscape:groupmode="layer"
     id="layer1">
    <g
       id="g79"
       transform="matrix(0.35277777,0,0,-0.35277777,5.3069253,8.5921664)">
      <g
         id="g81"
         inkscape:transform-center-x="125.45006"
         inkscape:transform-center-y="-22.903373"
         transform="matrix(4,0,0,4,44.448707,-72.283092)">
        <g
           id="g83">
          <text
             xml:space="preserve"
             style="font-size:1.25px;line-height:1.25;font-family:sans-serif;stroke-width:0.1875"
             x="-20.609663"
             y="-30.459957"
             id="text59482"
             transform="scale(1,-1)"><tspan
               sodipodi:role="line"
               id="tspan59480"
               style="stroke-width:0.1875"
               x="-20.609663"
               y="-30.459957" /></text>
          <text
             xml:space="preserve"
             style="font-style:normal;font-variant:normal;font-weight:normal;font-stretch:normal;font-size:15.75px;line-height:0.85;font-family:NimbusSanL;-inkscape-font-specification:NimbusSanL;stroke-width:0.188095"
             x="9.2015142"
             y="-5.2035427"
             id="text86136"
             transform="scale(0.999999,-1.000001)"><tspan
               id="tspan86134"
               style="font-style:normal;font-variant:normal;font-weight:bold;font-stretch:normal;font-size:15.75px;font-family:fon;-inkscape-font-specification:'fon Bold';stroke-width:0.188095"
               x="9.2015142"
               y="-5.2035427"
               sodipodi:role="line">Co</tspan><tspan
               style="font-style:normal;font-variant:normal;font-weight:bold;font-stretch:normal;font-size:15.75px;font-family:fon;-inkscape-font-specification:'fon Bold';stroke-width:0.188095"
               x="9.2015142"
               y="8.1839581"
               id="tspan92298"
               sodipodi:role="line">Pla</tspan></text>
          <text
             xml:space="preserve"
             style="font-style:normal;font-variant:normal;font-weight:normal;font-stretch:normal;font-size:5.49999px;line-height:1.05;font-family:NimbusSanL;-inkscape-font-specification:NimbusSanL;stroke-width:0.188093"
             x="-9.2532911"
             y="19.729437"
             id="text86136-3"
             transform="scale(1.0000003,-0.99999971)"><tspan
               sodipodi:role="line"
               style="font-style:normal;font-variant:normal;font-weight:bold;font-stretch:normal;font-size:5.49999px;font-family:FontAwesome;-inkscape-font-specification:'FontAwesome Bold';stroke-width:0.188093"
               x="-9.2532911"
               y="19.729437"
               id="tspan92298-4">Control de plagas:</tspan><tspan
               sodipodi:role="line"
               style="font-style:normal;font-variant:normal;font-weight:bold;font-stretch:normal;font-size:5.49999px;font-family:FontAwesome;-inkscape-font-specification:'FontAwesome Bold';stroke-width:0.188093"
               x="-9.2532911"
               y="26.039999"
               id="tspan207536">•Fumigación </tspan><tspan
               sodipodi:role="line"
               style="font-style:normal;font-variant:normal;font-weight:bold;font-stretch:normal;font-size:5.49999px;font-family:FontAwesome;-inkscape-font-specification:'FontAwesome Bold';stroke-width:0.188093"
               x="-9.2532911"
               y="32.350563"
               id="tspan47103">•Manejo de residuos</tspan><tspan
               sodipodi:role="line"
               style="font-style:normal;font-variant:normal;font-weight:bold;font-stretch:normal;font-size:3.25px;font-family:FontAwesome;-inkscape-font-specification:'FontAwesome Bold';stroke-width:0.188093"
               x="-9.2532911"
               y="38.125553"
               id="tspan54673">Apoyo a la agricultura con drones </tspan><tspan
               sodipodi:role="line"
               style="font-style:normal;font-variant:normal;font-weight:bold;font-stretch:normal;font-size:3.25px;font-family:FontAwesome;-inkscape-font-specification:'FontAwesome Bold';stroke-width:0.188093"
               x="-9.2532911"
               y="43.900543"
               id="tspan45163" /><tspan
               sodipodi:role="line"
               style="font-style:normal;font-variant:normal;font-weight:bold;font-stretch:normal;font-size:5.49999px;font-family:FontAwesome;-inkscape-font-specification:'FontAwesome Bold';stroke-width:0.188093"
               x="-9.2532911"
               y="49.675529"
               id="tspan197802" /></text>
          <text
             xml:space="preserve"
             transform="matrix(0.1875,0,0,-0.1875,-14.87299,24.15971)"
             id="text126828"
             style="font-size:16px;line-height:1.25;font-family:sans-serif;white-space:pre;shape-inside:url(#rect126830)" />
          <path
             id="path28378"
             style="fill:#000000;stroke-width:0.1875"
             d="m 46.439748,22.284682 a 1.6406251,6.5625005 45 0 1 -0.412354,-0.143188 1.6406251,6.5625005 45 0 1 2.357299,-4.603272 l -5.643675,-5.643679 a 6.5625005,13.125001 0 0 1 -5.331301,5.473391 V -8.8820675 a 6.5625005,13.125001 0 0 1 5.330933,5.4737533 l 5.644411,-5.6444073 a 6.5625005,1.6406251 45 0 1 -2.357667,-4.6029055 6.5625005,1.6406251 45 0 1 5.800782,3.480104 6.5625005,1.6406251 45 0 1 3.480103,5.8004118 6.5625005,1.6406251 45 0 1 -4.602906,-2.3572973 l -7.038208,7.03820704 a 6.5625005,13.125001 0 0 1 0.305053,3.93713276 6.5625005,13.125001 0 0 1 -0.302856,3.9393318 l 7.035644,7.0356469 a 1.6406251,6.5625005 45 0 1 4.603273,-2.357302 1.6406251,6.5625005 45 0 1 -3.480103,5.800783 1.6406251,6.5625005 45 0 1 -5.388428,3.623291 z" />
          <path
             id="path28378-3"
             style="fill:#000000;stroke-width:0.1875"
             d="m -0.92021498,-13.798657 a 1.6406251,6.5625005 45 0 1 0.412354,0.143189 1.6406251,6.5625005 45 0 1 -2.35729902,4.6032715 l 5.643675,5.6436771 A 6.5625005,13.125001 0 0 1 8.109816,-8.8819075 V 17.368095 A 6.5625005,13.125001 0 0 1 2.778883,11.89434 l -5.64441,5.644408 a 6.5625005,1.6406251 45 0 1 2.35766602,4.602906 6.5625005,1.6406251 45 0 1 -5.80078172,-3.480104 6.5625005,1.6406251 45 0 1 -3.4801032,-5.800414 6.5625005,1.6406251 45 0 1 4.6029058,2.357299 L 1.852369,8.1802266 A 6.5625005,13.125001 0 0 1 1.547315,4.2430937 6.5625005,13.125001 0 0 1 1.850171,0.30376174 L -5.1854721,-6.7318835 a 1.6406251,6.5625005 45 0 1 -4.6032738,2.3573001 1.6406251,6.5625005 45 0 1 3.4801032,-5.8007806 1.6406251,6.5625005 45 0 1 5.38842772,-3.623293 z" />
        </g>
      </g>
    </g>
  </g>
</svg>
