<?xml version="1.0" encoding="UTF-8" standalone="no"?>
<!-- Created with Inkscape (http://www.inkscape.org/) -->

<svg
   width="400"
   height="350"
   viewBox="0 0 105.83334 92.604167"
   version="1.1"
   id="svg5"
   inkscape:version="1.1.2 (0a00cf5339, 2022-02-04)"
   sodipodi:docname="out-01.svg"
   xmlns:inkscape="http://www.inkscape.org/namespaces/inkscape"
   xmlns:sodipodi="http://sodipodi.sourceforge.net/DTD/sodipodi-0.dtd"
   xmlns="http://www.w3.org/2000/svg"
   xmlns:svg="http://www.w3.org/2000/svg">
  <sodipodi:namedview
     id="namedview7"
     pagecolor="#ffffff"
     bordercolor="#666666"
     borderopacity="1.0"
     inkscape:pageshadow="2"
     inkscape:pageopacity="0"
     inkscape:pagecheckerboard="true"
     inkscape:document-units="px"
     showgrid="false"
     inkscape:zoom="1.4142136"
     inkscape:cx="120.20815"
     inkscape:cy="110.66221"
     inkscape:window-width="1920"
     inkscape:window-height="1080"
     inkscape:window-x="0"
     inkscape:window-y="0"
     inkscape:window-maximized="1"
     inkscape:current-layer="g83"
     inkscape:snap-center="true"
     inkscape:snap-grids="true"
     units="px"
     showborder="true"
     borderlayer="true"
     inkscape:showpageshadow="false"
     inkscape:snap-others="true"
     inkscape:snap-object-midpoints="true"
     inkscape:snap-page="false"
     scale-x="1"
     viewbox-width="400"
     viewbox-height="350"
     inkscape:snap-text-baseline="true"
     inkscape:snap-smooth-nodes="true"
     inkscape:snap-intersection-paths="true"
     inkscape:object-paths="true"
     inkscape:snap-midpoints="true"
     inkscape:object-nodes="true"
     inkscape:snap-nodes="false"
     inkscape:snap-global="true"
     inkscape:snap-bbox="true"
     inkscape:bbox-paths="true"
     inkscape:bbox-nodes="true"
     inkscape:snap-bbox-edge-midpoints="true"
     inkscape:snap-bbox-midpoints="true" />
  <defs
     id="defs2">
    <rect
       x="497.48459"
       y="220.35052"
       width="247.07487"
       height="169.71802"
       id="rect126830" />
  </defs>
  <g
     inkscape:label="Layer 1"
     inkscape:groupmode="layer"
     id="layer1">
    <g
       id="g79"
       transform="matrix(0.35277777,0,0,-0.35277777,5.3069253,8.5921664)">
      <g
         id="g81"
         inkscape:transform-center-x="125.45006"
         inkscape:transform-center-y="-22.903373"
         transform="matrix(4,0,0,4,44.448707,-72.283092)">
        <g
           id="g83">
          <text
             xml:space="preserve"
             style="font-size:1.25px;line-height:1.25;font-family:sans-serif;stroke-width:0.1875"
             x="-20.609663"
             y="-30.459957"
             id="text59482"
             transform="scale(1,-1)"><tspan
               sodipodi:role="line"
               id="tspan59480"
               style="stroke-width:0.1875"
               x="-20.609663"
               y="-30.459957" /></text>
          <path
             id="text86136"
             style="font-style:normal;font-variant:normal;font-weight:normal;font-stretch:normal;font-size:15.75px;line-height:0.85;font-family:NimbusSanL;-inkscape-font-specification:NimbusSanL;stroke-width:1.00317"
             d="M 327.00195 10 A 35.000001 8.75 45 0 0 324.80273 10.763672 A 35.000001 8.75 45 0 0 337.375 35.314453 L 307.27539 65.414062 A 35.000001 -70.000001 0 0 0 278.8418 36.222656 L 278.8418 176.22266 A 35.000001 -70.000001 0 0 0 307.27344 147.0293 L 337.37695 177.13281 A 8.75 35.000001 45 0 0 324.80273 201.68164 A 8.75 35.000001 45 0 0 355.74023 183.12109 A 8.75 35.000001 45 0 0 374.30078 152.18555 A 8.75 35.000001 45 0 0 349.75195 164.75781 L 312.21484 127.2207 A 35.000001 -70.000001 0 0 0 313.8418 106.22266 A 35.000001 -70.000001 0 0 0 312.22656 85.212891 L 349.75 47.689453 A 35.000001 8.75 45 0 0 374.30078 60.261719 A 35.000001 8.75 45 0 0 355.74023 29.324219 A 35.000001 8.75 45 0 0 327.00195 10 z M 73.976562 10.013672 A 8.75 35.000001 45 0 0 45.675781 29.324219 A 8.75 35.000001 45 0 0 27.115234 60.259766 A 8.75 35.000001 45 0 0 51.664062 47.6875 L 89.201172 85.224609 A 35.000001 -70.000001 0 0 0 87.574219 106.22266 A 35.000001 -70.000001 0 0 0 89.189453 127.23242 L 51.666016 164.75586 A 35.000001 8.75 45 0 0 27.115234 152.18359 A 35.000001 8.75 45 0 0 45.675781 183.12109 A 35.000001 8.75 45 0 0 74.414062 202.44531 A 35.000001 8.75 45 0 0 76.613281 201.68164 A 35.000001 8.75 45 0 0 64.041016 177.13086 L 94.140625 147.03125 A 35.000001 -70.000001 0 0 0 122.57422 176.22266 L 122.57422 36.222656 A 35.000001 -70.000001 0 0 0 94.142578 65.416016 L 64.039062 35.3125 A 8.75 35.000001 45 0 0 76.613281 10.763672 A 8.75 35.000001 45 0 0 73.976562 10.013672 z M 165.76172 38.755859 C 155.56251 38.755859 147.48242 41.613276 141.52148 47.328125 C 135.56055 53.01563 132.58008 60.753897 132.58008 70.542969 C 132.58008 80.304697 135.56055 88.042963 141.52148 93.757812 C 147.48242 99.445318 155.56251 102.28906 165.76172 102.28906 C 169.17968 102.28906 172.46094 101.90625 175.60547 101.14062 C 178.75 100.375 181.77149 99.240236 184.66992 97.736328 L 184.66992 85.0625 C 181.74414 87.058596 178.85937 88.521483 176.01562 89.451172 C 173.17188 90.38086 170.17773 90.845703 167.0332 90.845703 C 161.4004 90.845703 156.9707 89.041019 153.74414 85.431641 C 150.51758 81.822262 148.9043 76.859381 148.9043 70.542969 C 148.9043 64.199213 150.51758 59.22266 153.74414 55.613281 C 156.9707 52.003903 161.4004 50.199219 167.0332 50.199219 C 170.17773 50.199219 173.17188 50.664062 176.01562 51.59375 C 178.85937 52.523438 181.74414 53.986326 184.66992 55.982422 L 184.66992 43.308594 C 181.77149 41.804686 178.75 40.669923 175.60547 39.904297 C 172.46094 39.138671 169.17968 38.755859 165.76172 38.755859 z M 218.95898 54.054688 C 211.02931 54.054688 204.82226 56.187496 200.33789 60.453125 C 195.88086 64.718754 193.65234 70.624993 193.65234 78.171875 C 193.65234 85.718757 195.88086 91.624996 200.33789 95.890625 C 204.82226 100.15625 211.02931 102.28906 218.95898 102.28906 C 226.86132 102.28906 233.02735 100.15625 237.45703 95.890625 C 241.91406 91.624996 244.14258 85.718757 244.14258 78.171875 C 244.14258 70.624993 241.91406 64.718754 237.45703 60.453125 C 233.02735 56.187496 226.86132 54.054688 218.95898 54.054688 z M 218.95898 64.554688 C 222.1582 64.554688 224.60547 65.730467 226.30078 68.082031 C 227.99609 70.406252 228.84375 73.769527 228.84375 78.171875 C 228.84375 82.574223 227.99609 85.95117 226.30078 88.302734 C 224.60547 90.626955 222.1582 91.789062 218.95898 91.789062 C 215.70508 91.789062 213.2168 90.626955 211.49414 88.302734 C 209.79883 85.95117 208.95117 82.574223 208.95117 78.171875 C 208.95117 73.769527 209.79883 70.406252 211.49414 68.082031 C 213.2168 65.730467 215.70508 64.554688 218.95898 64.554688 z M 197.01562 108.67969 L 197.01562 172.5 L 211.69922 172.5 L 211.69922 108.67969 L 197.01562 108.67969 z M 136.10742 111.26367 L 136.10742 172.5 L 151.89844 172.5 L 151.89844 151.25391 L 162.31641 151.25391 C 170.10937 151.25391 176.08399 149.53125 180.24023 146.08594 C 184.42382 142.61328 186.51562 137.66407 186.51562 131.23828 C 186.51563 124.83984 184.42382 119.91797 180.24023 116.47266 C 176.08399 113 170.10937 111.26367 162.31641 111.26367 L 136.10742 111.26367 z M 151.89844 122.70703 L 160.63477 122.70703 C 163.69726 122.70703 166.0625 123.44531 167.73047 124.92188 C 169.39844 126.39844 170.23242 128.5039 170.23242 131.23828 C 170.23242 133.97266 169.39844 136.0918 167.73047 137.5957 C 166.0625 139.07227 163.69726 139.81055 160.63477 139.81055 L 151.89844 139.81055 L 151.89844 122.70703 z M 245.37305 125.45508 C 242.20118 125.45508 239.02929 125.66016 235.85742 126.07031 C 232.68555 126.45313 229.52734 127.02734 226.38281 127.79297 L 226.38281 138.99023 C 228.70703 137.73242 231.22266 136.78906 233.92969 136.16016 C 236.63672 135.53125 239.5625 135.2168 242.70703 135.2168 C 246.58984 135.2168 249.44727 135.76367 251.2793 136.85742 C 253.11133 137.92383 254.02734 139.61914 254.02734 141.94336 L 254.02734 143.0918 L 245.37305 143.0918 C 237.44337 143.0918 231.61914 144.34961 227.90039 146.86523 C 224.20899 149.38086 222.36328 153.33203 222.36328 158.71875 C 222.36328 163.14844 223.83985 166.75781 226.79297 169.54688 C 229.77343 172.3086 233.64258 173.68945 238.40039 173.68945 C 241.92773 173.68945 244.92188 173.06055 247.38281 171.80273 C 249.84375 170.51758 252.0586 168.48047 254.02734 165.69141 L 254.02734 172.5 L 268.83398 172.5 L 268.83398 146.29102 C 268.83398 138.93554 266.98828 133.63086 263.29688 130.37695 C 259.63282 127.0957 253.65819 125.45508 245.37305 125.45508 z M 246.39844 151.82812 L 254.02734 151.82812 L 254.02734 153.50977 C 254.02734 156.49024 253.08398 158.97851 251.19727 160.97461 C 249.31055 162.94336 246.98633 163.92773 244.22461 163.92773 C 242.00977 163.92773 240.27344 163.4082 239.01562 162.36914 C 237.78516 161.30273 237.16992 159.83985 237.16992 157.98047 C 237.16992 155.95703 237.93555 154.42578 239.4668 153.38672 C 241.02539 152.34766 243.33594 151.82812 246.39844 151.82812 z M 143.63867 211.78906 L 143.63867 234.07617 L 148.76562 234.07617 L 148.76562 211.78906 L 143.63867 211.78906 z M 174.81836 211.78906 L 174.81836 220.38281 C 174.11176 219.44705 173.33008 218.75955 172.4707 218.32031 C 171.62088 217.87153 170.64084 217.64648 169.5332 217.64648 C 167.55664 217.64648 165.93403 218.43425 164.66406 220.00977 C 163.3941 221.57573 162.75977 223.59527 162.75977 226.06836 C 162.75977 228.54144 163.3941 230.56706 164.66406 232.14258 C 165.93403 233.70855 167.55664 234.49023 169.5332 234.49023 C 170.65039 234.49023 171.63455 234.27127 172.48438 233.83203 C 173.3342 233.3928 174.11176 232.70117 174.81836 231.75586 L 174.81836 234.07617 L 179.97461 234.07617 L 179.97461 211.78906 L 174.81836 211.78906 z M 236.00586 211.78906 L 236.00586 234.07617 L 241.13477 234.07617 L 241.13477 211.78906 L 236.00586 211.78906 z M 43.019531 212.30469 C 39.457905 212.30469 36.636281 213.30317 34.554688 215.29883 C 32.473094 217.28493 31.433594 219.9859 31.433594 223.4043 C 31.433594 226.81314 32.473094 229.51606 34.554688 231.51172 C 36.636281 233.49783 39.457905 234.49023 43.019531 234.49023 C 44.213106 234.49023 45.358943 234.3572 46.457031 234.08984 C 47.55512 233.82248 48.610896 233.42556 49.623047 232.90039 L 49.623047 228.47461 C 48.601347 229.17166 47.594616 229.68316 46.601562 230.00781 C 45.608509 230.33246 44.562932 230.49414 43.464844 230.49414 C 41.497833 230.49414 39.950953 229.86393 38.824219 228.60352 C 37.697484 227.3431 37.132812 225.61002 37.132812 223.4043 C 37.132812 221.18902 37.697484 219.45182 38.824219 218.19141 C 39.950953 216.93099 41.497833 216.30078 43.464844 216.30078 C 44.562932 216.30078 45.608509 216.46246 46.601562 216.78711 C 47.594616 217.11176 48.601347 217.62327 49.623047 218.32031 L 49.623047 213.89453 C 48.610896 213.36936 47.55512 212.97244 46.457031 212.70508 C 45.358943 212.43772 44.213106 212.30469 43.019531 212.30469 z M 95.470703 213.47852 L 95.470703 218.0332 L 92.919922 218.0332 L 92.919922 221.70117 L 95.470703 221.70117 L 95.470703 228.50391 C 95.470703 230.52821 95.890192 231.96463 96.730469 232.81445 C 97.580294 233.65473 99.016713 234.07617 101.04102 234.07617 L 105.43945 234.07617 L 105.43945 230.4082 L 102.80273 230.4082 C 101.92426 230.4082 101.33702 230.2793 101.04102 230.02148 C 100.74501 229.75412 100.59766 229.2487 100.59766 228.50391 L 100.59766 221.70117 L 105.88281 221.70117 L 105.88281 218.0332 L 100.59766 218.0332 L 100.59766 213.47852 L 95.470703 213.47852 z M 61.595703 217.64648 C 58.82661 217.64648 56.65972 218.39128 55.09375 219.88086 C 53.537329 221.37044 52.759766 223.43295 52.759766 226.06836 C 52.759766 228.70377 53.537329 230.76628 55.09375 232.25586 C 56.65972 233.74544 58.82661 234.49023 61.595703 234.49023 C 64.355247 234.49023 66.509768 233.74544 68.056641 232.25586 C 69.613062 230.76628 70.390625 228.70377 70.390625 226.06836 C 70.390625 223.43295 69.613062 221.37044 68.056641 219.88086 C 66.509768 218.39128 64.355247 217.64648 61.595703 217.64648 z M 84.583984 217.64648 C 83.533639 217.64648 82.574 217.87153 81.705078 218.32031 C 80.836156 218.75955 80.015624 219.44705 79.242188 220.38281 L 79.242188 218.0332 L 74.115234 218.0332 L 74.115234 234.07617 L 79.242188 234.07617 L 79.242188 226.18359 C 79.242188 224.72266 79.547093 223.58094 80.158203 222.75977 C 80.769313 221.92904 81.610245 221.51367 82.679688 221.51367 C 83.118923 221.51367 83.509766 221.60981 83.853516 221.80078 C 84.197265 221.9822 84.469401 222.24002 84.669922 222.57422 C 84.822699 222.82248 84.929037 223.2092 84.986328 223.73438 C 85.053168 224.25955 85.085938 225.21506 85.085938 226.59961 L 85.085938 232.48633 L 85.085938 234.07617 L 90.242188 234.07617 L 90.242188 224.30664 C 90.242188 222.13911 89.75933 220.48784 88.794922 219.35156 C 87.840062 218.21528 86.436412 217.64648 84.583984 217.64648 z M 119.49023 217.64648 C 118.29666 217.64648 117.26953 217.88998 116.41016 218.37695 C 115.56033 218.85438 114.80534 219.61958 114.14648 220.66992 L 114.14648 218.0332 L 109.01953 218.0332 L 109.01953 234.07617 L 114.14648 234.07617 L 114.14648 226.68555 C 114.14648 225.11003 114.50044 223.90082 115.20703 223.06055 C 115.92318 222.21072 116.94011 221.78711 118.25781 221.78711 C 118.7066 221.78711 119.15061 221.83832 119.58984 221.94336 C 120.03863 222.03885 120.48676 222.19227 120.93555 222.40234 L 120.92188 217.76172 C 120.53993 217.71398 120.24935 217.68533 120.04883 217.67578 C 119.84831 217.65668 119.66211 217.64648 119.49023 217.64648 z M 131.11914 217.64648 C 128.35005 217.64648 126.18316 218.39128 124.61719 219.88086 C 123.06077 221.37044 122.2832 223.43295 122.2832 226.06836 C 122.2832 228.70377 123.06077 230.76628 124.61719 232.25586 C 126.18316 233.74544 128.35005 234.49023 131.11914 234.49023 C 133.87868 234.49023 136.03321 233.74544 137.58008 232.25586 C 139.1365 230.76628 139.91406 228.70377 139.91406 226.06836 C 139.91406 223.43295 139.1365 221.37044 137.58008 219.88086 C 136.03321 218.39128 133.87868 217.64648 131.11914 217.64648 z M 192.59375 217.64648 C 189.82466 217.64648 187.64757 218.39736 186.0625 219.89648 C 184.48698 221.39561 183.69922 223.45205 183.69922 226.06836 C 183.69922 228.73242 184.5013 230.80512 186.10547 232.28516 C 187.71918 233.75564 189.97809 234.49023 192.88086 234.49023 C 194.09353 234.49023 195.30491 234.37153 196.51758 234.13281 C 197.73025 233.90365 198.94358 233.55989 200.15625 233.10156 L 200.15625 229.14844 C 198.96268 229.79774 197.79839 230.28472 196.66211 230.60938 C 195.53538 230.92448 194.43251 231.08203 193.35352 231.08203 C 192.01671 231.08203 190.97526 230.78125 190.23047 230.17969 C 189.48568 229.57813 189.05187 228.67578 188.92773 227.47266 L 200.91602 227.47266 L 200.91602 226.01172 C 200.91602 223.47179 200.1569 221.44205 198.63867 219.92383 C 197.12999 218.4056 195.11458 217.64648 192.59375 217.64648 z M 225.45117 217.64648 C 224.33399 217.64648 223.3457 217.87153 222.48633 218.32031 C 221.62695 218.75955 220.84331 219.44705 220.13672 220.38281 L 220.13672 218.0332 L 215.00977 218.0332 L 215.00977 240.17773 L 220.13672 240.17773 L 220.13672 231.75586 C 220.84331 232.69162 221.62695 233.38325 222.48633 233.83203 C 223.3457 234.27127 224.33399 234.49023 225.45117 234.49023 C 227.42773 234.49023 229.05035 233.70855 230.32031 232.14258 C 231.59028 230.56706 232.22461 228.54144 232.22461 226.06836 C 232.22461 223.59527 231.59028 221.57573 230.32031 220.00977 C 229.05035 218.43425 227.42773 217.64648 225.45117 217.64648 z M 252.89258 217.64648 C 251.78494 217.64648 250.67795 217.7181 249.57031 217.86133 C 248.46268 217.99501 247.35981 218.19553 246.26172 218.46289 L 246.26172 222.37305 C 247.07335 221.93381 247.95117 221.60438 248.89648 221.38477 C 249.8418 221.16515 250.8648 221.05664 251.96289 221.05664 C 253.31879 221.05664 254.31532 221.24696 254.95508 221.62891 C 255.59483 222.0013 255.91602 222.59267 255.91602 223.4043 L 255.91602 223.80664 L 252.89258 223.80664 C 250.12349 223.80664 248.08962 224.24458 246.79102 225.12305 C 245.50196 226.00152 244.85742 227.3826 244.85742 229.26367 C 244.85742 230.81054 245.37305 232.07097 246.4043 233.04492 C 247.44509 234.00933 248.79753 234.49023 250.45898 234.49023 C 251.69075 234.49023 252.73633 234.27127 253.5957 233.83203 C 254.45508 233.38325 255.22852 232.67122 255.91602 231.69727 L 255.91602 234.07617 L 261.08594 234.07617 L 261.08594 224.92383 C 261.08594 222.35526 260.4414 220.50152 259.15234 219.36523 C 257.87283 218.2194 255.7858 217.64648 252.89258 217.64648 z M 293.68555 217.64648 C 292.57791 217.64648 291.46897 217.7181 290.36133 217.86133 C 289.25369 217.99501 288.15082 218.19553 287.05273 218.46289 L 287.05273 222.37305 C 287.86437 221.93381 288.74414 221.60438 289.68945 221.38477 C 290.63476 221.16515 291.65582 221.05664 292.75391 221.05664 C 294.10981 221.05664 295.10829 221.24696 295.74805 221.62891 C 296.3878 222.0013 296.70703 222.59267 296.70703 223.4043 L 296.70703 223.80664 L 293.68555 223.80664 C 290.91645 223.80664 288.88259 224.24458 287.58398 225.12305 C 286.29492 226.00152 285.65039 227.3826 285.65039 229.26367 C 285.65039 230.81054 286.16602 232.07097 287.19727 233.04492 C 288.23806 234.00933 289.58854 234.49023 291.25 234.49023 C 292.48177 234.49023 293.52735 234.27127 294.38672 233.83203 C 295.24609 233.38325 296.01953 232.67122 296.70703 231.69727 L 296.70703 234.07617 L 301.87695 234.07617 L 301.87695 224.92383 C 301.87695 222.35526 301.23242 220.50152 299.94336 219.36523 C 298.66385 218.2194 296.57877 217.64648 293.68555 217.64648 z M 312.80664 217.64648 C 310.40039 217.64648 308.61415 218.05773 307.44922 218.87891 C 306.28429 219.70009 305.70117 220.96051 305.70117 222.66016 C 305.70117 224.23567 306.15951 225.41016 307.07617 226.18359 C 307.99284 226.95703 309.59289 227.48698 311.875 227.77344 L 312.77734 227.88867 C 313.81814 228.0128 314.50977 228.1888 314.85352 228.41797 C 315.20681 228.63759 315.38477 228.97721 315.38477 229.43555 C 315.38477 229.97982 315.13108 230.38911 314.625 230.66602 C 314.11892 230.94292 313.36393 231.08203 312.36133 231.08203 C 311.25369 231.08203 310.16102 230.95725 309.08203 230.70898 C 308.01259 230.46072 306.96701 230.08832 305.94531 229.5918 L 305.94531 233.48828 C 307.13889 233.82248 308.29905 234.0701 309.42578 234.23242 C 310.56206 234.4043 311.66081 234.49023 312.7207 234.49023 C 315.22244 234.49023 317.10287 234.06055 318.36328 233.20117 C 319.6237 232.3418 320.25391 231.05881 320.25391 229.34961 C 320.25391 227.7168 319.79969 226.51779 318.89258 225.75391 C 317.98546 224.99002 316.21961 224.44162 313.59375 224.10742 L 312.69141 223.97852 C 311.76519 223.87348 311.12066 223.70985 310.75781 223.49023 C 310.40451 223.27062 310.22852 222.95551 310.22852 222.54492 C 310.22852 222.03885 310.46181 221.66645 310.92969 221.42773 C 311.40712 221.17947 312.13347 221.05664 313.10742 221.05664 C 314.01454 221.05664 314.9783 221.17122 316 221.40039 C 317.0217 221.62956 318.0816 221.97331 319.17969 222.43164 L 319.17969 218.53516 C 317.95747 218.2296 316.82595 218.00456 315.78516 217.86133 C 314.74436 217.7181 313.75195 217.64648 312.80664 217.64648 z M 271.48438 217.67578 C 269.52691 217.67578 267.90842 218.4451 266.62891 219.98242 C 265.34939 221.5102 264.70898 223.47244 264.70898 225.86914 C 264.70898 228.25629 265.34939 230.22266 266.62891 231.76953 C 267.90842 233.30685 269.52691 234.07617 271.48438 234.07617 C 272.60156 234.07617 273.58572 233.85525 274.43555 233.41602 C 275.28537 232.97678 276.06294 232.28928 276.76953 231.35352 L 276.76953 232.45703 C 276.76953 234.023 276.37869 235.17296 275.5957 235.9082 C 274.81272 236.64344 273.58094 237.01172 271.90039 237.01172 C 271.03147 237.01172 270.16601 236.88281 269.30664 236.625 C 268.44727 236.37674 267.56944 235.99414 266.67188 235.47852 L 266.67188 239.47461 C 267.61719 239.78971 268.55838 240.02496 269.49414 240.17773 C 270.4299 240.33051 271.39779 240.40625 272.40039 240.40625 C 275.49414 240.40625 277.8533 239.72287 279.47656 238.35742 C 281.10937 237.00152 281.92578 235.03515 281.92578 232.45703 L 281.92578 218.0332 L 276.76953 218.0332 L 276.76953 220.41211 C 276.06294 219.4668 275.28537 218.77322 274.43555 218.33398 C 273.58572 217.89475 272.60156 217.67578 271.48438 217.67578 z M 324.92383 218.0332 L 324.92383 223.57617 L 330.09375 223.57617 L 330.09375 218.0332 L 324.92383 218.0332 z M 192.56445 221.05664 C 193.48112 221.05664 194.22179 221.35742 194.78516 221.95898 C 195.35807 222.551 195.64453 223.33268 195.64453 224.30664 L 188.98438 224.30664 C 189.13715 223.2563 189.52387 222.45421 190.14453 221.90039 C 190.76519 221.33702 191.5714 221.05664 192.56445 221.05664 z M 61.595703 221.31445 C 62.712889 221.31445 63.568143 221.72374 64.160156 222.54492 C 64.752169 223.35655 65.048828 224.53104 65.048828 226.06836 C 65.048828 227.60568 64.752169 228.78624 64.160156 229.60742 C 63.568143 230.41905 62.712889 230.82422 61.595703 230.82422 C 60.45942 230.82422 59.591796 230.41905 58.990234 229.60742 C 58.398221 228.78624 58.101562 227.60568 58.101562 226.06836 C 58.101563 224.53104 58.398221 223.35655 58.990234 222.54492 C 59.591796 221.72374 60.45942 221.31445 61.595703 221.31445 z M 131.11914 221.31445 C 132.23633 221.31445 133.09158 221.72374 133.68359 222.54492 C 134.27561 223.35655 134.57227 224.53104 134.57227 226.06836 C 134.57227 227.60568 134.27561 228.78624 133.68359 229.60742 C 133.09158 230.41905 132.23633 230.82422 131.11914 230.82422 C 129.98286 230.82422 129.11523 230.41905 128.51367 229.60742 C 127.92166 228.78624 127.625 227.60568 127.625 226.06836 C 127.625 224.53104 127.92166 223.35655 128.51367 222.54492 C 129.11523 221.72374 129.98286 221.31445 131.11914 221.31445 z M 171.43945 221.37109 C 172.53754 221.37109 173.3724 221.77214 173.94531 222.57422 C 174.52778 223.3763 174.81836 224.54058 174.81836 226.06836 C 174.81836 227.59613 174.52778 228.76237 173.94531 229.56445 C 173.3724 230.36653 172.53754 230.76758 171.43945 230.76758 C 170.35091 230.76758 169.5141 230.36653 168.93164 229.56445 C 168.35872 228.76237 168.07227 227.59613 168.07227 226.06836 C 168.07227 224.54058 168.35872 223.3763 168.93164 222.57422 C 169.5141 221.77214 170.35091 221.37109 171.43945 221.37109 z M 223.54492 221.37109 C 224.64301 221.37109 225.47982 221.77214 226.05273 222.57422 C 226.6352 223.3763 226.92578 224.54058 226.92578 226.06836 C 226.92578 227.59613 226.6352 228.76237 226.05273 229.56445 C 225.47982 230.36653 224.64301 230.76758 223.54492 230.76758 C 222.44683 230.76758 221.60178 230.36653 221.00977 229.56445 C 220.4273 228.75282 220.13672 227.58659 220.13672 226.06836 C 220.13672 224.55013 220.4273 223.38997 221.00977 222.58789 C 221.60178 221.77626 222.44683 221.37109 223.54492 221.37109 z M 273.38867 221.37109 C 274.45811 221.37109 275.28885 221.76194 275.88086 222.54492 C 276.47287 223.32791 276.76953 224.43685 276.76953 225.86914 C 276.76953 227.29188 276.47287 228.39475 275.88086 229.17773 C 275.28885 229.96072 274.45811 230.35156 273.38867 230.35156 C 272.29058 230.35156 271.45573 229.97504 270.88281 229.2207 C 270.3099 228.45682 270.02344 227.33962 270.02344 225.86914 C 270.02344 224.43685 270.3201 223.32791 270.91211 222.54492 C 271.50412 221.76194 272.32878 221.37109 273.38867 221.37109 z M 253.25195 226.85742 L 255.91602 226.85742 L 255.91602 227.44336 C 255.91602 228.48416 255.58659 229.35373 254.92773 230.05078 C 254.26888 230.73828 253.4566 231.08203 252.49219 231.08203 C 251.71875 231.08203 251.11306 230.89996 250.67383 230.53711 C 250.24414 230.16471 250.0293 229.65516 250.0293 229.00586 C 250.0293 228.29926 250.29536 227.76324 250.83008 227.40039 C 251.37435 227.03754 252.18251 226.85742 253.25195 226.85742 z M 294.04297 226.85742 L 296.70703 226.85742 L 296.70703 227.44336 C 296.70703 228.48416 296.3776 229.35373 295.71875 230.05078 C 295.0599 230.73828 294.24761 231.08203 293.2832 231.08203 C 292.50977 231.08203 291.90408 230.89996 291.46484 230.53711 C 291.03516 230.16471 290.82031 229.65516 290.82031 229.00586 C 290.82031 228.29926 291.08833 227.76324 291.62305 227.40039 C 292.16732 227.03754 292.97353 226.85742 294.04297 226.85742 z M 324.92383 228.5332 L 324.92383 234.07617 L 330.09375 234.07617 L 330.09375 228.5332 L 324.92383 228.5332 z M 209.38086 244.27148 L 205.3418 249.65625 L 208.14844 249.65625 L 213.43359 244.27148 L 209.38086 244.27148 z M 121.20898 245.44531 L 121.20898 249.62695 L 126.33594 249.62695 L 126.33594 245.44531 L 121.20898 245.44531 z M 189.44336 245.44531 L 189.44336 249.62695 L 194.57031 249.62695 L 194.57031 245.44531 L 189.44336 245.44531 z M 51.412109 246.34766 L 51.412109 267.73242 L 56.927734 267.73242 L 56.927734 258.66602 L 65.736328 258.66602 L 65.736328 254.49805 L 56.927734 254.49805 L 56.927734 250.51562 L 66.294922 250.51562 L 66.294922 246.34766 L 51.412109 246.34766 z M 100.64062 251.30273 C 99.65712 251.30273 98.754773 251.5319 97.933594 251.99023 C 97.121963 252.44857 96.401692 253.13195 95.771484 254.03906 L 95.771484 251.68945 L 90.615234 251.68945 L 90.615234 267.73242 L 95.771484 267.73242 L 95.771484 259.83984 C 95.771484 258.34072 96.037544 257.19075 96.572266 256.38867 C 97.106987 255.57704 97.866104 255.16992 98.849609 255.16992 C 99.632594 255.16992 100.17687 255.42774 100.48242 255.94336 C 100.78798 256.44943 100.94141 257.59115 100.94141 259.36719 L 100.94141 267.73242 L 106.09766 267.73242 L 106.09766 259.85352 C 106.11675 258.33529 106.38889 257.17513 106.91406 256.37305 C 107.44878 255.57097 108.20378 255.16992 109.17773 255.16992 C 109.92252 255.16992 110.46072 255.42774 110.79492 255.94336 C 111.12912 256.44943 111.29688 257.27192 111.29688 258.4082 C 111.29687 258.65647 111.29275 258.84679 111.2832 258.98047 C 111.2832 259.11415 111.27713 259.24306 111.26758 259.36719 L 111.26758 267.73242 L 116.42383 267.73242 L 116.42383 257.96289 C 116.42383 255.79536 115.94292 254.14409 114.97852 253.00781 C 114.01411 251.87153 112.61046 251.30273 110.76758 251.30273 C 109.69814 251.30273 108.71397 251.56662 107.81641 252.0918 C 106.92839 252.60742 106.15907 253.36046 105.50977 254.35352 C 105.07053 253.38911 104.426 252.64019 103.57617 252.10547 C 102.72635 251.57075 101.74826 251.30273 100.64062 251.30273 z M 159.0918 251.30273 C 157.98416 251.30273 156.87717 251.37435 155.76953 251.51758 C 154.66189 251.65126 153.55903 251.85178 152.46094 252.11914 L 152.46094 256.0293 C 153.27257 255.59006 154.15039 255.26063 155.0957 255.04102 C 156.04101 254.8214 157.06402 254.71289 158.16211 254.71289 C 159.51801 254.71289 160.51454 254.90321 161.1543 255.28516 C 161.79405 255.65755 162.11523 256.24892 162.11523 257.06055 L 162.11523 257.46289 L 159.0918 257.46289 C 156.3227 257.46289 154.28884 257.90083 152.99023 258.7793 C 151.70117 259.65777 151.05664 261.03885 151.05664 262.91992 C 151.05664 264.46679 151.57227 265.72722 152.60352 266.70117 C 153.64431 267.66558 154.99675 268.14648 156.6582 268.14648 C 157.88997 268.14648 158.93555 267.92752 159.79492 267.48828 C 160.6543 267.0395 161.42774 266.32747 162.11523 265.35352 L 162.11523 267.73242 L 167.28516 267.73242 L 167.28516 258.58008 C 167.28516 256.01151 166.64062 254.15777 165.35156 253.02148 C 164.07205 251.87565 161.98502 251.30273 159.0918 251.30273 z M 180.08984 251.30273 C 177.19662 251.30273 174.93359 252.04753 173.30078 253.53711 C 171.66797 255.01714 170.85156 257.07965 170.85156 259.72461 C 170.85156 262.36957 171.66797 264.43815 173.30078 265.92773 C 174.93359 267.40777 177.19662 268.14648 180.08984 268.14648 C 180.92057 268.14648 181.74718 268.07075 182.56836 267.91797 C 183.39909 267.77474 184.2155 267.55577 185.01758 267.25977 L 185.01758 263.0625 C 184.40647 263.53038 183.73741 263.88433 183.01172 264.12305 C 182.29557 264.36176 181.53646 264.48047 180.73438 264.48047 C 179.30209 264.48047 178.18489 264.0651 177.38281 263.23438 C 176.59028 262.3941 176.19336 261.22374 176.19336 259.72461 C 176.19336 258.22548 176.59028 257.0612 177.38281 256.23047 C 178.18489 255.39019 179.30209 254.9707 180.73438 254.9707 C 181.48871 254.9707 182.21506 255.08529 182.91211 255.31445 C 183.61871 255.54362 184.32053 255.89562 185.01758 256.37305 L 185.01758 252.19141 C 184.20595 251.8954 183.38954 251.67643 182.56836 251.5332 C 181.75673 251.38043 180.93012 251.30273 180.08984 251.30273 z M 207.13086 251.30273 C 204.36177 251.30273 202.19488 252.04753 200.62891 253.53711 C 199.07249 255.02669 198.29492 257.0892 198.29492 259.72461 C 198.29492 262.36002 199.07249 264.42253 200.62891 265.91211 C 202.19488 267.40169 204.36177 268.14648 207.13086 268.14648 C 209.8904 268.14648 212.04492 267.40169 213.5918 265.91211 C 215.14822 264.42253 215.92578 262.36002 215.92578 259.72461 C 215.92578 257.0892 215.14822 255.02669 213.5918 253.53711 C 212.04492 252.04753 209.8904 251.30273 207.13086 251.30273 z M 230.11914 251.30273 C 229.0688 251.30273 228.10916 251.52778 227.24023 251.97656 C 226.37131 252.4158 225.55078 253.1033 224.77734 254.03906 L 224.77734 251.68945 L 219.65039 251.68945 L 219.65039 267.73242 L 224.77734 267.73242 L 224.77734 259.83984 C 224.77734 258.37891 225.08225 257.23719 225.69336 256.41602 C 226.30447 255.58529 227.1454 255.16992 228.21484 255.16992 C 228.65408 255.16992 229.04492 255.26606 229.38867 255.45703 C 229.73242 255.63845 230.00456 255.89627 230.20508 256.23047 C 230.35786 256.47873 230.46419 256.86545 230.52148 257.39062 C 230.58832 257.9158 230.62109 258.87131 230.62109 260.25586 L 230.62109 266.14258 L 230.62109 267.73242 L 235.77734 267.73242 L 235.77734 257.96289 C 235.77734 255.79536 235.29449 254.14409 234.33008 253.00781 C 233.37522 251.87153 231.97157 251.30273 230.11914 251.30273 z M 136.89258 251.33203 C 134.93512 251.33203 133.31662 252.10135 132.03711 253.63867 C 130.7576 255.16645 130.11719 257.12869 130.11719 259.52539 C 130.11719 261.91254 130.7576 263.87891 132.03711 265.42578 C 133.31662 266.9631 134.93512 267.73242 136.89258 267.73242 C 138.00976 267.73242 138.99197 267.5115 139.8418 267.07227 C 140.69162 266.63303 141.47114 265.94553 142.17773 265.00977 L 142.17773 266.11328 C 142.17773 267.67925 141.78494 268.82921 141.00195 269.56445 C 140.21897 270.29969 138.98719 270.66797 137.30664 270.66797 C 136.43772 270.66797 135.57422 270.53906 134.71484 270.28125 C 133.85547 270.03299 132.97765 269.65039 132.08008 269.13477 L 132.08008 273.13086 C 133.02539 273.44596 133.96463 273.68121 134.90039 273.83398 C 135.83615 273.98676 136.80599 274.0625 137.80859 274.0625 C 140.90234 274.0625 143.2615 273.37912 144.88477 272.01367 C 146.51758 270.65777 147.33398 268.6914 147.33398 266.11328 L 147.33398 251.68945 L 142.17773 251.68945 L 142.17773 254.06836 C 141.47114 253.12305 140.69162 252.42947 139.8418 251.99023 C 138.99197 251.551 138.00976 251.33203 136.89258 251.33203 z M 39.353516 251.68945 C 38.656468 251.68945 37.997612 251.81836 37.376953 252.07617 C 36.756294 252.32444 36.193576 252.69271 35.6875 253.17969 C 35.200522 253.65712 34.828125 254.20551 34.570312 254.82617 C 34.322049 255.44683 34.197266 256.11176 34.197266 256.81836 C 34.197266 257.52496 34.326172 258.19206 34.583984 258.82227 C 34.841796 259.44292 35.21007 259.9974 35.6875 260.48438 C 36.174478 260.97135 36.726998 261.34375 37.347656 261.60156 C 37.968315 261.85937 38.627171 261.98828 39.324219 261.98828 C 40.030815 261.98828 40.695748 261.85937 41.316406 261.60156 C 41.946614 261.34375 42.505209 260.97135 42.992188 260.48438 C 43.479166 259.9974 43.851563 259.44292 44.109375 258.82227 C 44.367187 258.19206 44.496094 257.52496 44.496094 256.81836 C 44.496094 256.12131 44.367187 255.46658 44.109375 254.85547 C 43.861112 254.23481 43.488714 253.67621 42.992188 253.17969 C 42.514758 252.70226 41.960285 252.33398 41.330078 252.07617 C 40.709419 251.81836 40.050563 251.68945 39.353516 251.68945 z M 69.587891 251.68945 L 69.587891 261.48633 C 69.587891 263.65386 70.070748 265.30708 71.035156 266.44336 C 72.009113 267.57964 73.422963 268.14648 75.275391 268.14648 C 76.316188 268.14648 77.265626 267.92752 78.125 267.48828 C 78.993922 267.0395 79.814454 266.34787 80.587891 265.41211 L 80.587891 267.73242 L 85.716797 267.73242 L 85.716797 251.68945 L 80.587891 251.68945 L 80.587891 259.61133 C 80.587891 261.07226 80.282985 262.21202 79.671875 263.0332 C 79.060765 263.85438 78.219833 264.26562 77.150391 264.26562 C 76.711155 264.26563 76.320312 264.17556 75.976562 263.99414 C 75.642362 263.81272 75.370225 263.5549 75.160156 263.2207 C 74.99783 262.96289 74.883246 262.55165 74.816406 261.98828 C 74.749566 261.41537 74.716797 260.48437 74.716797 259.19531 C 74.716797 258.75608 74.72092 257.88238 74.730469 256.57422 C 74.740017 255.25651 74.744141 254.16384 74.744141 253.29492 L 74.744141 251.68945 L 69.587891 251.68945 z M 121.20898 251.68945 L 121.20898 267.73242 L 126.33594 267.73242 L 126.33594 251.68945 L 121.20898 251.68945 z M 189.44336 251.68945 L 189.44336 267.73242 L 194.57031 267.73242 L 194.57031 251.68945 L 189.44336 251.68945 z M 207.13086 254.9707 C 208.24805 254.9707 209.1033 255.37999 209.69531 256.20117 C 210.28733 257.0128 210.58398 258.18729 210.58398 259.72461 C 210.58398 261.26193 210.28733 262.44249 209.69531 263.26367 C 209.1033 264.0753 208.24805 264.48047 207.13086 264.48047 C 205.99458 264.48047 205.12695 264.0753 204.52539 263.26367 C 203.93338 262.44249 203.63672 261.26193 203.63672 259.72461 C 203.63672 258.18729 203.93338 257.0128 204.52539 256.20117 C 205.12695 255.37999 205.99458 254.9707 207.13086 254.9707 z M 138.79688 255.02734 C 139.86632 255.02734 140.69705 255.41819 141.28906 256.20117 C 141.88108 256.98416 142.17773 258.0931 142.17773 259.52539 C 142.17773 260.94813 141.88108 262.051 141.28906 262.83398 C 140.69705 263.61697 139.86632 264.00781 138.79688 264.00781 C 137.69879 264.00781 136.86393 263.63129 136.29102 262.87695 C 135.7181 262.11307 135.43164 260.99587 135.43164 259.52539 C 135.43164 258.0931 135.72635 256.98416 136.31836 256.20117 C 136.91037 255.41819 137.73698 255.02734 138.79688 255.02734 z M 159.45117 260.51367 L 162.11523 260.51367 L 162.11523 261.09961 C 162.11523 262.14041 161.78581 263.00998 161.12695 263.70703 C 160.4681 264.39453 159.65581 264.73828 158.69141 264.73828 C 157.91797 264.73828 157.31228 264.55621 156.87305 264.19336 C 156.44336 263.82096 156.22852 263.31141 156.22852 262.66211 C 156.22852 261.95551 156.49458 261.41949 157.0293 261.05664 C 157.57357 260.69379 158.38173 260.51367 159.45117 260.51367 z M 140.94531 279.10156 L 140.94531 283.2832 L 146.07227 283.2832 L 146.07227 279.10156 L 140.94531 279.10156 z M 192.2793 279.10156 L 192.2793 287.69531 C 191.5727 286.75955 190.78906 286.07205 189.92969 285.63281 C 189.07986 285.18403 188.10178 284.95898 186.99414 284.95898 C 185.01758 284.95898 183.39301 285.74675 182.12305 287.32227 C 180.85308 288.88823 180.21875 290.90777 180.21875 293.38086 C 180.21875 295.85394 180.85308 297.87956 182.12305 299.45508 C 183.39301 301.02105 185.01758 301.80273 186.99414 301.80273 C 188.11133 301.80273 189.09353 301.58377 189.94336 301.14453 C 190.79318 300.7053 191.5727 300.01367 192.2793 299.06836 L 192.2793 301.38867 L 197.43555 301.38867 L 197.43555 279.10156 L 192.2793 279.10156 z M 284.28906 279.10156 L 284.28906 283.2832 L 289.41602 283.2832 L 289.41602 279.10156 L 284.28906 279.10156 z M 305.25781 279.10156 L 305.25781 287.69531 C 304.55122 286.75955 303.76758 286.07205 302.9082 285.63281 C 302.05838 285.18403 301.08029 284.95898 299.97266 284.95898 C 297.9961 284.95898 296.37348 285.74675 295.10352 287.32227 C 293.83355 288.88823 293.19727 290.90777 293.19727 293.38086 C 293.19727 295.85394 293.83355 297.87956 295.10352 299.45508 C 296.37348 301.02105 297.9961 301.80273 299.97266 301.80273 C 301.08984 301.80273 302.074 301.58377 302.92383 301.14453 C 303.77365 300.7053 304.55122 300.01367 305.25781 299.06836 L 305.25781 301.38867 L 310.41406 301.38867 L 310.41406 279.10156 L 305.25781 279.10156 z M 51.412109 280.00391 L 51.412109 301.38867 L 56.640625 301.38867 L 56.640625 285.74805 L 61.568359 297.27734 L 65.0625 297.27734 L 69.990234 285.74805 L 69.990234 301.38867 L 75.203125 301.38867 L 75.203125 280.00391 L 68.199219 280.00391 L 63.300781 291.44727 L 58.431641 280.00391 L 51.412109 280.00391 z M 87.205078 284.95898 C 86.097441 284.95898 84.99045 285.0306 83.882812 285.17383 C 82.775175 285.30751 81.672307 285.50803 80.574219 285.77539 L 80.574219 289.68555 C 81.385849 289.24631 82.263673 288.91688 83.208984 288.69727 C 84.154295 288.47765 85.177302 288.36914 86.275391 288.36914 C 87.631291 288.36914 88.627822 288.55946 89.267578 288.94141 C 89.907334 289.3138 90.228516 289.90517 90.228516 290.7168 L 90.228516 291.11914 L 87.205078 291.11914 C 84.435985 291.11914 82.402125 291.55708 81.103516 292.43555 C 79.814455 293.31402 79.169922 294.6951 79.169922 296.57617 C 79.169922 298.12304 79.685549 299.38347 80.716797 300.35742 C 81.757594 301.32183 83.110029 301.80273 84.771484 301.80273 C 86.003253 301.80273 87.048829 301.58377 87.908203 301.14453 C 88.767577 300.69575 89.541017 299.98372 90.228516 299.00977 L 90.228516 301.38867 L 95.398438 301.38867 L 95.398438 292.23633 C 95.398437 289.66776 94.753904 287.81402 93.464844 286.67773 C 92.185332 285.5319 90.098303 284.95898 87.205078 284.95898 z M 110.63867 284.95898 C 109.58833 284.95898 108.62869 285.18403 107.75977 285.63281 C 106.89084 286.07205 106.06836 286.75955 105.29492 287.69531 L 105.29492 285.3457 L 100.16797 285.3457 L 100.16797 301.38867 L 105.29492 301.38867 L 105.29492 293.49609 C 105.29492 292.03516 105.60178 290.89344 106.21289 290.07227 C 106.824 289.24154 107.66298 288.82617 108.73242 288.82617 C 109.17166 288.82617 109.56445 288.92231 109.9082 289.11328 C 110.25195 289.2947 110.52409 289.55252 110.72461 289.88672 C 110.87739 290.13498 110.98177 290.5217 111.03906 291.04688 C 111.1059 291.57205 111.13867 292.52756 111.13867 293.91211 L 111.13867 299.79883 L 111.13867 301.38867 L 116.29492 301.38867 L 116.29492 291.61914 C 116.29492 289.45161 115.81402 287.80034 114.84961 286.66406 C 113.89475 285.52778 112.4911 284.95898 110.63867 284.95898 z M 128.74219 284.95898 C 125.97309 284.95898 123.796 285.70986 122.21094 287.20898 C 120.63542 288.70811 119.84766 290.76455 119.84766 293.38086 C 119.84766 296.04492 120.64974 298.11762 122.25391 299.59766 C 123.86762 301.06814 126.12652 301.80273 129.0293 301.80273 C 130.24197 301.80273 131.45334 301.68403 132.66602 301.44531 C 133.87869 301.21615 135.09202 300.87239 136.30469 300.41406 L 136.30469 296.46094 C 135.11111 297.11024 133.94683 297.59722 132.81055 297.92188 C 131.68381 298.23698 130.58094 298.39453 129.50195 298.39453 C 128.16515 298.39453 127.1237 298.09375 126.37891 297.49219 C 125.63412 296.89063 125.2003 295.98828 125.07617 294.78516 L 137.06445 294.78516 L 137.06445 293.32422 C 137.06445 290.78429 136.30534 288.75455 134.78711 287.23633 C 133.27843 285.7181 131.26302 284.95898 128.74219 284.95898 z M 158.63477 284.95898 C 155.86567 284.95898 153.69683 285.70378 152.13086 287.19336 C 150.57444 288.68294 149.79688 290.74545 149.79688 293.38086 C 149.79687 296.01627 150.57444 298.07878 152.13086 299.56836 C 153.69683 301.05794 155.86567 301.80273 158.63477 301.80273 C 161.39431 301.80273 163.54688 301.05794 165.09375 299.56836 C 166.65017 298.07878 167.42773 296.01627 167.42773 293.38086 C 167.42773 290.74545 166.65017 288.68294 165.09375 287.19336 C 163.54688 285.70378 161.39431 284.95898 158.63477 284.95898 z M 210.05273 284.95898 C 207.28364 284.95898 205.10655 285.70986 203.52148 287.20898 C 201.94597 288.70811 201.1582 290.76455 201.1582 293.38086 C 201.1582 296.04492 201.96029 298.11762 203.56445 299.59766 C 205.17817 301.06814 207.43707 301.80273 210.33984 301.80273 C 211.55252 301.80273 212.76584 301.68403 213.97852 301.44531 C 215.19119 301.21615 216.40256 300.87239 217.61523 300.41406 L 217.61523 296.46094 C 216.42166 297.11024 215.25738 297.59722 214.12109 297.92188 C 212.99436 298.23698 211.89149 298.39453 210.8125 298.39453 C 209.4757 298.39453 208.43424 298.09375 207.68945 297.49219 C 206.94466 296.89063 206.51085 295.98828 206.38672 294.78516 L 218.375 294.78516 L 218.375 293.32422 C 218.375 290.78429 217.61588 288.75455 216.09766 287.23633 C 214.58898 285.7181 212.57356 284.95898 210.05273 284.95898 z M 242.93945 284.95898 C 241.74588 284.95898 240.71875 285.20248 239.85938 285.68945 C 239.00955 286.16688 238.25456 286.93208 237.5957 287.98242 L 237.5957 285.3457 L 232.46875 285.3457 L 232.46875 301.38867 L 237.5957 301.38867 L 237.5957 293.99805 C 237.5957 292.42253 237.94965 291.21332 238.65625 290.37305 C 239.37239 289.52322 240.38932 289.09961 241.70703 289.09961 C 242.15582 289.09961 242.59983 289.15082 243.03906 289.25586 C 243.48785 289.35135 243.93598 289.50477 244.38477 289.71484 L 244.37109 285.07422 C 243.98915 285.02648 243.69857 284.99783 243.49805 284.98828 C 243.29753 284.96918 243.11133 284.95898 242.93945 284.95898 z M 254.62695 284.95898 C 251.85786 284.95898 249.68077 285.70986 248.0957 287.20898 C 246.52018 288.70811 245.73242 290.76455 245.73242 293.38086 C 245.73242 296.04492 246.53451 298.11762 248.13867 299.59766 C 249.75238 301.06814 252.00934 301.80273 254.91211 301.80273 C 256.12478 301.80273 257.33811 301.68403 258.55078 301.44531 C 259.76345 301.21615 260.97678 300.87239 262.18945 300.41406 L 262.18945 296.46094 C 260.99588 297.11024 259.82964 297.59722 258.69336 297.92188 C 257.56663 298.23698 256.46376 298.39453 255.38477 298.39453 C 254.04796 298.39453 253.00846 298.09375 252.26367 297.49219 C 251.51888 296.89063 251.08312 295.98828 250.95898 294.78516 L 262.94727 294.78516 L 262.94727 293.32422 C 262.94727 290.78429 262.18815 288.75455 260.66992 287.23633 C 259.16124 285.7181 257.14778 284.95898 254.62695 284.95898 z M 272.98828 284.95898 C 270.58204 284.95898 268.79579 285.37023 267.63086 286.19141 C 266.46593 287.01259 265.88477 288.27301 265.88477 289.97266 C 265.88477 291.54817 266.3431 292.72266 267.25977 293.49609 C 268.17643 294.26953 269.77453 294.79948 272.05664 295.08594 L 272.95898 295.20117 C 273.99978 295.3253 274.69336 295.5013 275.03711 295.73047 C 275.39041 295.95009 275.56641 296.28971 275.56641 296.74805 C 275.56641 297.29232 275.31272 297.70161 274.80664 297.97852 C 274.30057 298.25542 273.54752 298.39453 272.54492 298.39453 C 271.43728 298.39453 270.34266 298.26975 269.26367 298.02148 C 268.19423 297.77322 267.14865 297.40082 266.12695 296.9043 L 266.12695 300.80078 C 267.32053 301.13498 268.48069 301.3826 269.60742 301.54492 C 270.7437 301.7168 271.84245 301.80273 272.90234 301.80273 C 275.40408 301.80273 277.28451 301.37305 278.54492 300.51367 C 279.80534 299.6543 280.43555 298.37131 280.43555 296.66211 C 280.43555 295.0293 279.98329 293.83029 279.07617 293.06641 C 278.16906 292.30252 276.40125 291.75412 273.77539 291.41992 L 272.87305 291.29102 C 271.94683 291.18598 271.3023 291.02235 270.93945 290.80273 C 270.58616 290.58312 270.41016 290.26801 270.41016 289.85742 C 270.41016 289.35135 270.64345 288.97895 271.11133 288.74023 C 271.58876 288.49197 272.31511 288.36914 273.28906 288.36914 C 274.19618 288.36914 275.15994 288.48372 276.18164 288.71289 C 277.20334 288.94206 278.26324 289.28581 279.36133 289.74414 L 279.36133 285.84766 C 278.13911 285.5421 277.00759 285.31706 275.9668 285.17383 C 274.926 285.0306 273.93359 284.95898 272.98828 284.95898 z M 343.85742 284.95898 C 341.08833 284.95898 338.92144 285.70378 337.35547 287.19336 C 335.79905 288.68294 335.02148 290.74545 335.02148 293.38086 C 335.02148 296.01627 335.79905 298.07878 337.35547 299.56836 C 338.92144 301.05794 341.08833 301.80273 343.85742 301.80273 C 346.61697 301.80273 348.77149 301.05794 350.31836 299.56836 C 351.87478 298.07878 352.65234 296.01627 352.65234 293.38086 C 352.65234 290.74545 351.87478 288.68294 350.31836 287.19336 C 348.77149 285.70378 346.61697 284.95898 343.85742 284.95898 z M 362.53516 284.95898 C 360.12891 284.95898 358.34266 285.37023 357.17773 286.19141 C 356.01281 287.01259 355.43164 288.27301 355.43164 289.97266 C 355.43164 291.54817 355.88998 292.72266 356.80664 293.49609 C 357.72331 294.26953 359.3214 294.79948 361.60352 295.08594 L 362.50586 295.20117 C 363.54666 295.3253 364.24023 295.5013 364.58398 295.73047 C 364.93728 295.95009 365.11328 296.28971 365.11328 296.74805 C 365.11328 297.29232 364.85959 297.70161 364.35352 297.97852 C 363.84744 298.25542 363.0944 298.39453 362.0918 298.39453 C 360.98416 298.39453 359.88954 298.26975 358.81055 298.02148 C 357.7411 297.77322 356.69553 297.40082 355.67383 296.9043 L 355.67383 300.80078 C 356.8674 301.13498 358.02756 301.3826 359.1543 301.54492 C 360.29058 301.7168 361.38932 301.80273 362.44922 301.80273 C 364.95095 301.80273 366.83138 301.37305 368.0918 300.51367 C 369.35221 299.6543 369.98242 298.37131 369.98242 296.66211 C 369.98242 295.0293 369.53016 293.83029 368.62305 293.06641 C 367.71593 292.30252 365.94813 291.75412 363.32227 291.41992 L 362.41992 291.29102 C 361.49371 291.18598 360.84917 291.02235 360.48633 290.80273 C 360.13303 290.58312 359.95703 290.26801 359.95703 289.85742 C 359.95703 289.35135 360.19032 288.97895 360.6582 288.74023 C 361.13563 288.49197 361.86198 288.36914 362.83594 288.36914 C 363.74305 288.36914 364.70682 288.48372 365.72852 288.71289 C 366.75022 288.94206 367.81011 289.28581 368.9082 289.74414 L 368.9082 285.84766 C 367.68598 285.5421 366.55447 285.31706 365.51367 285.17383 C 364.47287 285.0306 363.48047 284.95898 362.53516 284.95898 z M 39.353516 285.3457 C 38.656468 285.3457 37.997612 285.47461 37.376953 285.73242 C 36.756294 285.98069 36.193576 286.34896 35.6875 286.83594 C 35.200522 287.31337 34.828125 287.86176 34.570312 288.48242 C 34.322049 289.10308 34.197266 289.76801 34.197266 290.47461 C 34.197266 291.18121 34.326172 291.84831 34.583984 292.47852 C 34.841796 293.09917 35.21007 293.65365 35.6875 294.14062 C 36.174478 294.6276 36.726998 295 37.347656 295.25781 C 37.968315 295.51562 38.627171 295.64453 39.324219 295.64453 C 40.030815 295.64453 40.695748 295.51562 41.316406 295.25781 C 41.946614 295 42.505209 294.6276 42.992188 294.14062 C 43.479166 293.65365 43.851563 293.09917 44.109375 292.47852 C 44.367187 291.84831 44.496094 291.18121 44.496094 290.47461 C 44.496094 289.77756 44.367187 289.12283 44.109375 288.51172 C 43.861112 287.89106 43.488714 287.33246 42.992188 286.83594 C 42.514758 286.35851 41.960285 285.99023 41.330078 285.73242 C 40.709419 285.47461 40.050563 285.3457 39.353516 285.3457 z M 140.94531 285.3457 L 140.94531 301.10156 C 140.94531 302.39062 140.76324 303.25412 140.40039 303.69336 C 140.03754 304.13259 139.37044 304.35352 138.39648 304.35352 L 137.50781 304.35352 L 137.50781 307.71875 L 140.04297 307.71875 C 142.00043 307.71875 143.49414 307.14995 144.52539 306.01367 C 145.55664 304.88694 146.07227 303.25 146.07227 301.10156 L 146.07227 285.3457 L 140.94531 285.3457 z M 284.28906 285.3457 L 284.28906 301.38867 L 289.41602 301.38867 L 289.41602 285.3457 L 284.28906 285.3457 z M 315.16992 285.3457 L 315.16992 295.14258 C 315.16992 297.31011 315.65083 298.96333 316.61523 300.09961 C 317.58919 301.23589 319.00304 301.80273 320.85547 301.80273 C 321.89627 301.80273 322.8457 301.58377 323.70508 301.14453 C 324.574 300.69575 325.39649 300.00412 326.16992 299.06836 L 326.16992 301.38867 L 331.29688 301.38867 L 331.29688 285.3457 L 326.16992 285.3457 L 326.16992 293.26758 C 326.16992 294.72851 325.86306 295.86827 325.25195 296.68945 C 324.64084 297.51063 323.80186 297.92187 322.73242 297.92188 C 322.29319 297.92188 321.90039 297.83181 321.55664 297.65039 C 321.22244 297.46897 320.9503 297.21115 320.74023 296.87695 C 320.57791 296.61914 320.46332 296.2079 320.39648 295.64453 C 320.32964 295.07162 320.29688 294.14062 320.29688 292.85156 C 320.29688 292.41233 320.301 291.53863 320.31055 290.23047 C 320.3201 288.91276 320.32617 287.82009 320.32617 286.95117 L 320.32617 285.3457 L 315.16992 285.3457 z M 128.71289 288.36914 C 129.62956 288.36914 130.37023 288.66992 130.93359 289.27148 C 131.50651 289.8635 131.79297 290.64518 131.79297 291.61914 L 125.13281 291.61914 C 125.28559 290.5688 125.67231 289.76671 126.29297 289.21289 C 126.91363 288.64952 127.71984 288.36914 128.71289 288.36914 z M 210.02539 288.36914 C 210.94206 288.36914 211.68077 288.66992 212.24414 289.27148 C 212.81706 289.8635 213.10352 290.64518 213.10352 291.61914 L 206.44336 291.61914 C 206.59614 290.5688 206.98286 289.76671 207.60352 289.21289 C 208.22417 288.64952 209.03234 288.36914 210.02539 288.36914 z M 254.59766 288.36914 C 255.51432 288.36914 256.25499 288.66992 256.81836 289.27148 C 257.39128 289.8635 257.67773 290.64518 257.67773 291.61914 L 251.01758 291.61914 C 251.17036 290.5688 251.55708 289.76671 252.17773 289.21289 C 252.79839 288.64952 253.6046 288.36914 254.59766 288.36914 z M 158.63477 288.62695 C 159.75195 288.62695 160.60525 289.03624 161.19727 289.85742 C 161.78928 290.66905 162.08594 291.84354 162.08594 293.38086 C 162.08594 294.91818 161.78928 296.09874 161.19727 296.91992 C 160.60525 297.73155 159.75195 298.13672 158.63477 298.13672 C 157.49848 298.13672 156.62891 297.73155 156.02734 296.91992 C 155.43533 296.09874 155.13867 294.91818 155.13867 293.38086 C 155.13867 291.84354 155.43533 290.66905 156.02734 289.85742 C 156.62891 289.03624 157.49848 288.62695 158.63477 288.62695 z M 343.85742 288.62695 C 344.97461 288.62695 345.82986 289.03624 346.42188 289.85742 C 347.01389 290.66905 347.31055 291.84354 347.31055 293.38086 C 347.31055 294.91818 347.01389 296.09874 346.42188 296.91992 C 345.82986 297.73155 344.97461 298.13672 343.85742 298.13672 C 342.72114 298.13672 341.85351 297.73155 341.25195 296.91992 C 340.65994 296.09874 340.36328 294.91818 340.36328 293.38086 C 340.36328 291.84354 340.65994 290.66905 341.25195 289.85742 C 341.85351 289.03624 342.72114 288.62695 343.85742 288.62695 z M 188.89844 288.68359 C 189.99653 288.68359 190.83138 289.08464 191.4043 289.88672 C 191.98676 290.6888 192.2793 291.85308 192.2793 293.38086 C 192.2793 294.90863 191.98676 296.07487 191.4043 296.87695 C 190.83138 297.67903 189.99653 298.08008 188.89844 298.08008 C 187.8099 298.08008 186.97504 297.67903 186.39258 296.87695 C 185.81966 296.07487 185.5332 294.90863 185.5332 293.38086 C 185.5332 291.85308 185.81966 290.6888 186.39258 289.88672 C 186.97504 289.08464 187.8099 288.68359 188.89844 288.68359 z M 301.87695 288.68359 C 302.97504 288.68359 303.81185 289.08464 304.38477 289.88672 C 304.96723 290.6888 305.25781 291.85308 305.25781 293.38086 C 305.25781 294.90863 304.96723 296.07487 304.38477 296.87695 C 303.81185 297.67903 302.97504 298.08008 301.87695 298.08008 C 300.78841 298.08008 299.95356 297.67903 299.37109 296.87695 C 298.79818 296.07487 298.51172 294.90863 298.51172 293.38086 C 298.51172 291.85308 298.79818 290.6888 299.37109 289.88672 C 299.95356 289.08464 300.78841 288.68359 301.87695 288.68359 z M 87.564453 294.16992 L 90.228516 294.16992 L 90.228516 294.75586 C 90.228516 295.79666 89.899088 296.66623 89.240234 297.36328 C 88.581381 298.05078 87.769096 298.39453 86.804688 298.39453 C 86.031251 298.39453 85.425564 298.21246 84.986328 297.84961 C 84.556641 297.47721 84.341797 296.96766 84.341797 296.31836 C 84.341797 295.61176 84.607857 295.07574 85.142578 294.71289 C 85.686848 294.35004 86.49501 294.16992 87.564453 294.16992 z M 116.13086 319.01953 L 116.13086 332.1875 L 119.16016 332.1875 L 119.16016 319.01953 L 116.13086 319.01953 z M 172.45508 319.01953 L 172.45508 321.49023 L 175.48633 321.49023 L 175.48633 319.01953 L 172.45508 319.01953 z M 201.01172 319.01953 L 201.01172 332.1875 L 204.04102 332.1875 L 204.04102 319.01953 L 201.01172 319.01953 z M 300.86523 319.01953 L 300.86523 324.09766 C 300.4477 323.54471 299.98438 323.13845 299.47656 322.87891 C 298.97439 322.61372 298.3967 322.48047 297.74219 322.48047 C 296.57422 322.48047 295.61372 322.94596 294.86328 323.87695 C 294.11285 324.8023 293.73828 325.99566 293.73828 327.45703 C 293.73828 328.9184 294.11285 330.11393 294.86328 331.04492 C 295.61372 331.97027 296.57422 332.43359 297.74219 332.43359 C 298.40234 332.43359 298.9822 332.30447 299.48438 332.04492 C 299.98655 331.78537 300.4477 331.375 300.86523 330.81641 L 300.86523 332.1875 L 303.91211 332.1875 L 303.91211 319.01953 L 300.86523 319.01953 z M 34.736328 319.55273 L 30.056641 332.1875 L 33.332031 332.1875 L 34.136719 329.88672 L 39.230469 329.88672 L 40.027344 332.1875 L 43.302734 332.1875 L 38.621094 319.55273 L 34.736328 319.55273 z M 207.23242 320.01758 L 207.23242 322.70898 L 205.72656 322.70898 L 205.72656 324.875 L 207.23242 324.875 L 207.23242 328.89648 C 207.23242 330.09266 207.48003 330.94119 207.97656 331.44336 C 208.47873 331.93989 209.32921 332.1875 210.52539 332.1875 L 213.12305 332.1875 L 213.12305 330.02148 L 211.56641 330.02148 C 211.04731 330.02148 210.7003 329.94531 210.52539 329.79297 C 210.35048 329.63498 210.26172 329.33659 210.26172 328.89648 L 210.26172 324.875 L 213.38477 324.875 L 213.38477 322.70898 L 210.26172 322.70898 L 210.26172 320.01758 L 207.23242 320.01758 z M 51.011719 322.48047 C 50.351562 322.48047 49.767578 322.61372 49.259766 322.87891 C 48.751953 323.13845 48.290582 323.54471 47.873047 324.09766 L 47.873047 322.70898 L 44.841797 322.70898 L 44.841797 335.79297 L 47.873047 335.79297 L 47.873047 330.81641 C 48.290582 331.36936 48.751953 331.77973 49.259766 332.04492 C 49.767578 332.30447 50.351562 332.43359 51.011719 332.43359 C 52.179688 332.43359 53.140191 331.97027 53.890625 331.04492 C 54.641059 330.11393 55.015625 328.9184 55.015625 327.45703 C 55.015625 325.99566 54.641059 324.8023 53.890625 323.87695 C 53.140191 322.94596 52.179688 322.48047 51.011719 322.48047 z M 61.761719 322.48047 C 60.125434 322.48047 58.843316 322.92057 57.917969 323.80078 C 56.998264 324.68099 56.539063 325.89974 56.539062 327.45703 C 56.539062 329.01432 56.998264 330.23307 57.917969 331.11328 C 58.843316 331.99349 60.125434 332.43359 61.761719 332.43359 C 63.392362 332.43359 64.664062 331.99349 65.578125 331.11328 C 66.49783 330.23307 66.957031 329.01432 66.957031 327.45703 C 66.957031 325.89974 66.49783 324.68099 65.578125 323.80078 C 64.664062 322.92057 63.392362 322.48047 61.761719 322.48047 z M 84.96875 322.48047 C 83.332465 322.48047 82.050347 322.92057 81.125 323.80078 C 80.205295 324.68099 79.746094 325.89974 79.746094 327.45703 C 79.746094 329.01432 80.205295 330.23307 81.125 331.11328 C 82.050347 331.99349 83.332465 332.43359 84.96875 332.43359 C 86.599393 332.43359 87.871094 331.99349 88.785156 331.11328 C 89.704861 330.23307 90.164063 329.01432 90.164062 327.45703 C 90.164062 325.89974 89.704861 324.68099 88.785156 323.80078 C 87.871094 322.92057 86.599393 322.48047 84.96875 322.48047 z M 102.4375 322.48047 C 101.78299 322.48047 101.12717 322.52279 100.47266 322.60742 C 99.818142 322.68641 99.16645 322.8049 98.517578 322.96289 L 98.517578 325.27344 C 98.997179 325.01389 99.517578 324.81923 100.07617 324.68945 C 100.63477 324.55968 101.23785 324.49414 101.88672 324.49414 C 102.68793 324.49414 103.27821 324.60829 103.65625 324.83398 C 104.03429 325.05404 104.22266 325.40321 104.22266 325.88281 L 104.22266 326.11914 L 102.4375 326.11914 C 100.80121 326.11914 99.599393 326.37934 98.832031 326.89844 C 98.070312 327.41753 97.689453 328.23221 97.689453 329.34375 C 97.689453 330.25781 97.99414 331.0026 98.603516 331.57812 C 99.218533 332.148 100.01628 332.43359 100.99805 332.43359 C 101.72591 332.43359 102.34375 332.30447 102.85156 332.04492 C 103.35938 331.77973 103.81641 331.35872 104.22266 330.7832 L 104.22266 332.1875 L 107.27734 332.1875 L 107.27734 326.7793 C 107.27734 325.2615 106.89648 324.16753 106.13477 323.49609 C 105.37869 322.81901 104.14714 322.48047 102.4375 322.48047 z M 126.10938 322.48047 C 125.45486 322.48047 124.801 322.52279 124.14648 322.60742 C 123.49197 322.68641 122.84028 322.8049 122.19141 322.96289 L 122.19141 325.27344 C 122.67101 325.01389 123.18945 324.81923 123.74805 324.68945 C 124.30664 324.55968 124.90972 324.49414 125.55859 324.49414 C 126.35981 324.49414 126.95009 324.60829 127.32812 324.83398 C 127.70616 325.05404 127.89453 325.40321 127.89453 325.88281 L 127.89453 326.11914 L 126.10938 326.11914 C 124.47309 326.11914 123.27127 326.37934 122.50391 326.89844 C 121.74219 327.41753 121.36133 328.23221 121.36133 329.34375 C 121.36133 330.25781 121.66602 331.0026 122.27539 331.57812 C 122.89041 332.148 123.68815 332.43359 124.66992 332.43359 C 125.39779 332.43359 126.01562 332.30447 126.52344 332.04492 C 127.03125 331.77973 127.48828 331.35872 127.89453 330.7832 L 127.89453 332.1875 L 130.95117 332.1875 L 130.95117 326.7793 C 130.95117 325.2615 130.57031 324.16753 129.80859 323.49609 C 129.05252 322.81901 127.81901 322.48047 126.10938 322.48047 z M 143.83984 322.48047 C 143.18533 322.48047 142.53147 322.52279 141.87695 322.60742 C 141.22244 322.68641 140.57075 322.8049 139.92188 322.96289 L 139.92188 325.27344 C 140.40148 325.01389 140.91992 324.81923 141.47852 324.68945 C 142.03711 324.55968 142.64214 324.49414 143.29102 324.49414 C 144.09223 324.49414 144.68056 324.60829 145.05859 324.83398 C 145.43663 325.05404 145.62695 325.40321 145.62695 325.88281 L 145.62695 326.11914 L 143.83984 326.11914 C 142.20356 326.11914 141.00174 326.37934 140.23438 326.89844 C 139.47266 327.41753 139.0918 328.23221 139.0918 329.34375 C 139.0918 330.25781 139.39648 331.0026 140.00586 331.57812 C 140.62088 332.148 141.42057 332.43359 142.40234 332.43359 C 143.13021 332.43359 143.74805 332.30447 144.25586 332.04492 C 144.76367 331.77973 145.2207 331.35872 145.62695 330.7832 L 145.62695 332.1875 L 148.68164 332.1875 L 148.68164 326.7793 C 148.68164 325.2615 148.30078 324.16753 147.53906 323.49609 C 146.78299 322.81901 145.54948 322.48047 143.83984 322.48047 z M 170.09375 322.48047 C 169.38845 322.48047 168.7832 322.62435 168.27539 322.91211 C 167.77322 323.19423 167.32682 323.64497 166.9375 324.26562 L 166.9375 322.70898 L 163.9082 322.70898 L 163.9082 332.1875 L 166.9375 332.1875 L 166.9375 327.82031 C 166.9375 326.88932 167.14692 326.17622 167.56445 325.67969 C 167.98763 325.17752 168.58854 324.92578 169.36719 324.92578 C 169.63238 324.92578 169.89475 324.95747 170.1543 325.01953 C 170.41949 325.07595 170.68403 325.16688 170.94922 325.29102 L 170.94141 322.54883 C 170.71571 322.52062 170.54232 322.50369 170.42383 322.49805 C 170.30534 322.48676 170.19531 322.48047 170.09375 322.48047 z M 183.14453 322.48047 C 181.4349 322.48047 180.09766 322.92057 179.13281 323.80078 C 178.16797 324.67535 177.68555 325.8941 177.68555 327.45703 C 177.68555 329.01996 178.16797 330.24089 179.13281 331.12109 C 180.09766 331.99566 181.4349 332.43359 183.14453 332.43359 C 183.63542 332.43359 184.12413 332.38911 184.60938 332.29883 C 185.10026 332.21419 185.58268 332.08312 186.05664 331.9082 L 186.05664 329.42969 C 185.69553 329.70616 185.29991 329.91363 184.87109 330.05469 C 184.44792 330.19575 183.99935 330.26758 183.52539 330.26758 C 182.67904 330.26758 182.01888 330.02214 181.54492 329.53125 C 181.07661 329.03472 180.84375 328.34288 180.84375 327.45703 C 180.84375 326.57118 181.07661 325.88346 181.54492 325.39258 C 182.01888 324.89605 182.67904 324.64648 183.52539 324.64648 C 183.97114 324.64648 184.40061 324.71419 184.8125 324.84961 C 185.23003 324.98503 185.64475 325.19444 186.05664 325.47656 L 186.05664 323.00586 C 185.57704 322.83095 185.09462 322.69987 184.60938 322.61523 C 184.12977 322.52496 183.64106 322.48047 183.14453 322.48047 z M 233.76562 322.48047 C 233.06033 322.48047 232.45313 322.62435 231.94531 322.91211 C 231.44314 323.19423 230.9987 323.64497 230.60938 324.26562 L 230.60938 322.70898 L 227.57812 322.70898 L 227.57812 332.1875 L 230.60938 332.1875 L 230.60938 327.82031 C 230.60938 326.88932 230.81684 326.17622 231.23438 325.67969 C 231.65755 325.17752 232.25846 324.92578 233.03711 324.92578 C 233.3023 324.92578 233.56467 324.95747 233.82422 325.01953 C 234.08941 325.07595 234.3559 325.16688 234.62109 325.29102 L 234.61133 322.54883 C 234.38563 322.52062 234.21419 322.50369 234.0957 322.49805 C 233.97721 322.48676 233.86719 322.48047 233.76562 322.48047 z M 240.16406 322.48047 C 239.50955 322.48047 238.85569 322.52279 238.20117 322.60742 C 237.54666 322.68641 236.89497 322.8049 236.24609 322.96289 L 236.24609 325.27344 C 236.72569 325.01389 237.24414 324.81923 237.80273 324.68945 C 238.36133 324.55968 238.96441 324.49414 239.61328 324.49414 C 240.4145 324.49414 241.00477 324.60829 241.38281 324.83398 C 241.76085 325.05404 241.94922 325.40321 241.94922 325.88281 L 241.94922 326.11914 L 240.16406 326.11914 C 238.52778 326.11914 237.32596 326.37934 236.55859 326.89844 C 235.79687 327.41753 235.41602 328.23221 235.41602 329.34375 C 235.41602 330.25781 235.7207 331.0026 236.33008 331.57812 C 236.9451 332.148 237.74284 332.43359 238.72461 332.43359 C 239.45247 332.43359 240.07031 332.30447 240.57812 332.04492 C 241.08594 331.77973 241.54297 331.35872 241.94922 330.7832 L 241.94922 332.1875 L 245.00586 332.1875 L 245.00586 326.7793 C 245.00586 325.2615 244.625 324.16753 243.86328 323.49609 C 243.1072 322.81901 241.8737 322.48047 240.16406 322.48047 z M 258.60547 322.48047 C 256.89583 322.48047 255.55859 322.92057 254.59375 323.80078 C 253.62891 324.67535 253.14648 325.8941 253.14648 327.45703 C 253.14648 329.01996 253.62891 330.24089 254.59375 331.12109 C 255.55859 331.99566 256.89583 332.43359 258.60547 332.43359 C 259.09635 332.43359 259.58507 332.38911 260.07031 332.29883 C 260.5612 332.21419 261.04362 332.08312 261.51758 331.9082 L 261.51758 329.42969 C 261.15647 329.70616 260.76085 329.91363 260.33203 330.05469 C 259.90885 330.19575 259.46029 330.26758 258.98633 330.26758 C 258.13997 330.26758 257.47982 330.02214 257.00586 329.53125 C 256.53754 329.03472 256.30469 328.34288 256.30469 327.45703 C 256.30469 326.57118 256.53754 325.88346 257.00586 325.39258 C 257.47982 324.89605 258.13997 324.64648 258.98633 324.64648 C 259.43207 324.64648 259.86155 324.71419 260.27344 324.84961 C 260.69097 324.98503 261.10569 325.19444 261.51758 325.47656 L 261.51758 323.00586 C 261.03798 322.83095 260.55556 322.69987 260.07031 322.61523 C 259.59071 322.52496 259.102 322.48047 258.60547 322.48047 z M 268.64453 322.48047 C 267.00825 322.48047 265.72613 322.92057 264.80078 323.80078 C 263.88108 324.68099 263.42188 325.89974 263.42188 327.45703 C 263.42188 329.01432 263.88108 330.23307 264.80078 331.11328 C 265.72613 331.99349 267.00825 332.43359 268.64453 332.43359 C 270.27517 332.43359 271.54687 331.99349 272.46094 331.11328 C 273.38064 330.23307 273.83984 329.01432 273.83984 327.45703 C 273.83984 325.89974 273.38064 324.68099 272.46094 323.80078 C 271.54687 322.92057 270.27517 322.48047 268.64453 322.48047 z M 282.22852 322.48047 C 281.60786 322.48047 281.0408 322.61372 280.52734 322.87891 C 280.01389 323.13845 279.52734 323.54471 279.07031 324.09766 L 279.07031 322.70898 L 276.04102 322.70898 L 276.04102 332.1875 L 279.07031 332.1875 L 279.07031 327.52539 C 279.07031 326.66211 279.25217 325.9872 279.61328 325.50195 C 279.97439 325.01107 280.46962 324.76562 281.10156 324.76562 C 281.36111 324.76562 281.59375 324.8227 281.79688 324.93555 C 282 325.04275 282.16081 325.1951 282.2793 325.39258 C 282.36957 325.53928 282.43099 325.7678 282.46484 326.07812 C 282.50434 326.38845 282.52344 326.95139 282.52344 327.76953 L 282.52344 331.24805 L 282.52344 332.1875 L 285.57031 332.1875 L 285.57031 326.41602 C 285.57031 325.1352 285.28668 324.15972 284.7168 323.48828 C 284.15256 322.81684 283.32313 322.48047 282.22852 322.48047 z M 313.00977 322.48047 C 312.30447 322.48047 311.69727 322.62435 311.18945 322.91211 C 310.68728 323.19423 310.24284 323.64497 309.85352 324.26562 L 309.85352 322.70898 L 306.82227 322.70898 L 306.82227 332.1875 L 309.85352 332.1875 L 309.85352 327.82031 C 309.85352 326.88932 310.06098 326.17622 310.47852 325.67969 C 310.90169 325.17752 311.5026 324.92578 312.28125 324.92578 C 312.54644 324.92578 312.80881 324.95747 313.06836 325.01953 C 313.33355 325.07595 313.60004 325.16688 313.86523 325.29102 L 313.85547 322.54883 C 313.62977 322.52062 313.45833 322.50369 313.33984 322.49805 C 313.22135 322.48676 313.11133 322.48047 313.00977 322.48047 z M 319.88281 322.48047 C 318.24653 322.48047 316.96441 322.92057 316.03906 323.80078 C 315.11936 324.68099 314.66016 325.89974 314.66016 327.45703 C 314.66016 329.01432 315.11936 330.23307 316.03906 331.11328 C 316.96441 331.99349 318.24653 332.43359 319.88281 332.43359 C 321.51346 332.43359 322.78516 331.99349 323.69922 331.11328 C 324.61892 330.23307 325.07812 329.01432 325.07812 327.45703 C 325.07812 325.89974 324.61892 324.68099 323.69922 323.80078 C 322.78516 322.92057 321.51346 322.48047 319.88281 322.48047 z M 333.4668 322.48047 C 332.84614 322.48047 332.27908 322.61372 331.76562 322.87891 C 331.25217 323.13845 330.76563 323.54471 330.30859 324.09766 L 330.30859 322.70898 L 327.2793 322.70898 L 327.2793 332.1875 L 330.30859 332.1875 L 330.30859 327.52539 C 330.30859 326.66211 330.49045 325.9872 330.85156 325.50195 C 331.21267 325.01107 331.7079 324.76562 332.33984 324.76562 C 332.59939 324.76562 332.83203 324.8227 333.03516 324.93555 C 333.23828 325.04275 333.39909 325.1951 333.51758 325.39258 C 333.60786 325.53928 333.66927 325.7678 333.70312 326.07812 C 333.74262 326.38845 333.76172 326.95139 333.76172 327.76953 L 333.76172 331.24805 L 333.76172 332.1875 L 336.80859 332.1875 L 336.80859 326.41602 C 336.80859 325.1352 336.52496 324.15972 335.95508 323.48828 C 335.39084 322.81684 334.56142 322.48047 333.4668 322.48047 z M 344.16406 322.48047 C 342.52778 322.48047 341.24132 322.92274 340.30469 323.80859 C 339.3737 324.69444 338.9082 325.91102 338.9082 327.45703 C 338.9082 329.03125 339.38216 330.25629 340.33008 331.13086 C 341.28364 331.99978 342.61871 332.43359 344.33398 332.43359 C 345.05056 332.43359 345.76584 332.36372 346.48242 332.22266 C 347.199 332.08724 347.91623 331.88411 348.63281 331.61328 L 348.63281 329.27734 C 347.92752 329.66102 347.2398 329.94878 346.56836 330.14062 C 345.90256 330.32682 345.25087 330.41992 344.61328 330.41992 C 343.82335 330.41992 343.20768 330.24219 342.76758 329.88672 C 342.32747 329.53125 342.0714 328.99805 341.99805 328.28711 L 349.08203 328.28711 L 349.08203 327.42383 C 349.08203 325.92296 348.63346 324.72331 347.73633 323.82617 C 346.84483 322.92904 345.65365 322.48047 344.16406 322.48047 z M 355.01367 322.48047 C 353.5918 322.48047 352.53798 322.72374 351.84961 323.20898 C 351.16124 323.69423 350.81641 324.43902 350.81641 325.44336 C 350.81641 326.37435 351.08724 327.06836 351.62891 327.52539 C 352.17057 327.98242 353.11632 328.29557 354.46484 328.46484 L 354.99805 328.53125 C 355.61306 328.6046 356.02148 328.71029 356.22461 328.8457 C 356.43338 328.97548 356.53711 329.17448 356.53711 329.44531 C 356.53711 329.76693 356.38889 330.0102 356.08984 330.17383 C 355.7908 330.33746 355.3444 330.41992 354.75195 330.41992 C 354.09744 330.41992 353.45204 330.34592 352.81445 330.19922 C 352.18251 330.05252 351.56467 329.83247 350.96094 329.53906 L 350.96094 331.8418 C 351.66623 332.03928 352.35178 332.18533 353.01758 332.28125 C 353.68902 332.38281 354.33659 332.43359 354.96289 332.43359 C 356.44119 332.43359 357.55404 332.17969 358.29883 331.67188 C 359.04362 331.16406 359.41602 330.40451 359.41602 329.39453 C 359.41602 328.42969 359.14735 327.72287 358.61133 327.27148 C 358.0753 326.8201 357.03212 326.49436 355.48047 326.29688 L 354.94727 326.2207 C 354.39996 326.15864 354.0191 326.06337 353.80469 325.93359 C 353.59592 325.80382 353.49023 325.61762 353.49023 325.375 C 353.49023 325.07595 353.62977 324.8559 353.90625 324.71484 C 354.18837 324.56814 354.61589 324.49414 355.19141 324.49414 C 355.72743 324.49414 356.29861 324.56185 356.90234 324.69727 C 357.50608 324.83268 358.13238 325.03581 358.78125 325.30664 L 358.78125 323.00586 C 358.05903 322.8253 357.39041 322.69206 356.77539 322.60742 C 356.16037 322.52279 355.57227 322.48047 355.01367 322.48047 z M 154.82617 322.49805 C 153.66949 322.49805 152.71311 322.95096 151.95703 323.85938 C 151.20095 324.76215 150.82227 325.92166 150.82227 327.33789 C 150.82227 328.74848 151.20095 329.91211 151.95703 330.82617 C 152.71311 331.73459 153.66949 332.1875 154.82617 332.1875 C 155.48633 332.1875 156.06814 332.05838 156.57031 331.79883 C 157.07248 331.53928 157.53168 331.13303 157.94922 330.58008 L 157.94922 331.23242 C 157.94922 332.15777 157.71853 332.83702 157.25586 333.27148 C 156.79319 333.70595 156.06532 333.92383 155.07227 333.92383 C 154.55881 333.92383 154.04688 333.84766 153.53906 333.69531 C 153.03125 333.54861 152.5128 333.32227 151.98242 333.01758 L 151.98242 335.37891 C 152.54102 335.5651 153.09744 335.70269 153.65039 335.79297 C 154.20334 335.88325 154.77474 335.92969 155.36719 335.92969 C 157.19531 335.92969 158.58963 335.52561 159.54883 334.71875 C 160.51367 333.91753 160.99609 332.75586 160.99609 331.23242 L 160.99609 322.70898 L 157.94922 322.70898 L 157.94922 324.11328 C 157.53168 323.55469 157.07248 323.14627 156.57031 322.88672 C 156.06814 322.62717 155.48633 322.49805 154.82617 322.49805 z M 36.683594 322.51367 L 38.410156 327.54102 L 34.949219 327.54102 L 36.683594 322.51367 z M 67.914062 322.70898 L 72.136719 332.55273 L 72.052734 332.81445 C 71.92296 333.23763 71.738932 333.53168 71.501953 333.69531 C 71.270616 333.85894 70.898221 333.93945 70.384766 333.93945 L 69.4375 333.93945 L 69.4375 335.92969 L 71.189453 335.92969 C 72.064019 335.92969 72.766493 335.7181 73.296875 335.29492 C 73.832899 334.87739 74.300564 334.14106 74.701172 333.08594 L 78.6875 322.70898 L 75.658203 322.70898 L 73.492188 329.14062 L 70.943359 322.70898 L 67.914062 322.70898 z M 172.45508 322.70898 L 172.45508 332.1875 L 175.48633 332.1875 L 175.48633 322.70898 L 172.45508 322.70898 z M 188.57031 322.70898 L 188.57031 328.49805 C 188.57031 329.77886 188.8559 330.75434 189.42578 331.42578 C 190.0013 332.09722 190.83507 332.43359 191.92969 332.43359 C 192.54471 332.43359 193.10742 332.30447 193.61523 332.04492 C 194.12869 331.77973 194.61328 331.36936 195.07031 330.81641 L 195.07031 332.1875 L 198.09961 332.1875 L 198.09961 322.70898 L 195.07031 322.70898 L 195.07031 327.38867 C 195.07031 328.25195 194.89041 328.92687 194.5293 329.41211 C 194.16819 329.89735 193.67101 330.14062 193.03906 330.14062 C 192.77951 330.14063 192.54883 330.08572 192.3457 329.97852 C 192.14822 329.87131 191.98741 329.71897 191.86328 329.52148 C 191.76736 329.36914 191.69965 329.12782 191.66016 328.79492 C 191.62066 328.45638 191.59961 327.90625 191.59961 327.14453 C 191.59961 326.88498 191.60373 326.36871 191.60938 325.5957 C 191.61502 324.81706 191.61719 324.1697 191.61719 323.65625 L 191.61719 322.70898 L 188.57031 322.70898 z M 215.13672 322.70898 L 215.13672 328.49805 C 215.13672 329.77886 215.42231 330.75434 215.99219 331.42578 C 216.56771 332.09722 217.40343 332.43359 218.49805 332.43359 C 219.11306 332.43359 219.67383 332.30447 220.18164 332.04492 C 220.6951 331.77973 221.17969 331.36936 221.63672 330.81641 L 221.63672 332.1875 L 224.66797 332.1875 L 224.66797 322.70898 L 221.63672 322.70898 L 221.63672 327.38867 C 221.63672 328.25195 221.45681 328.92687 221.0957 329.41211 C 220.73459 329.89735 220.23741 330.14062 219.60547 330.14062 C 219.34592 330.14063 219.11523 330.08572 218.91211 329.97852 C 218.71463 329.87131 218.55382 329.71897 218.42969 329.52148 C 218.33377 329.36914 218.26606 329.12782 218.22656 328.79492 C 218.18707 328.45638 218.16797 327.90625 218.16797 327.14453 C 218.16797 326.88498 218.17014 326.36871 218.17578 325.5957 C 218.18142 324.81706 218.18359 324.1697 218.18359 323.65625 L 218.18359 322.70898 L 215.13672 322.70898 z M 344.14648 324.49414 C 344.68815 324.49414 345.12608 324.67188 345.45898 325.02734 C 345.79753 325.37717 345.9668 325.84049 345.9668 326.41602 L 342.03125 326.41602 C 342.12153 325.79536 342.35004 325.3214 342.7168 324.99414 C 343.08355 324.66124 343.55968 324.49414 344.14648 324.49414 z M 61.761719 324.64648 C 62.421875 324.64648 62.925564 324.88976 63.275391 325.375 C 63.625217 325.8546 63.800781 326.54861 63.800781 327.45703 C 63.800781 328.36545 63.625217 329.06163 63.275391 329.54688 C 62.925564 330.02648 62.421875 330.26758 61.761719 330.26758 C 61.090278 330.26758 60.576172 330.02648 60.220703 329.54688 C 59.870877 329.06163 59.695312 328.36545 59.695312 327.45703 C 59.695312 326.54861 59.870877 325.8546 60.220703 325.375 C 60.576172 324.88976 61.090278 324.64648 61.761719 324.64648 z M 84.96875 324.64648 C 85.628906 324.64648 86.132595 324.88976 86.482422 325.375 C 86.832248 325.8546 87.007813 326.54861 87.007812 327.45703 C 87.007812 328.36545 86.832248 329.06163 86.482422 329.54688 C 86.132595 330.02648 85.628906 330.26758 84.96875 330.26758 C 84.297309 330.26758 83.783203 330.02648 83.427734 329.54688 C 83.077908 329.06163 82.902344 328.36545 82.902344 327.45703 C 82.902344 326.54861 83.077908 325.8546 83.427734 325.375 C 83.783203 324.88976 84.297309 324.64648 84.96875 324.64648 z M 268.64453 324.64648 C 269.30469 324.64648 269.80838 324.88976 270.1582 325.375 C 270.50803 325.8546 270.68359 326.54861 270.68359 327.45703 C 270.68359 328.36545 270.50803 329.06163 270.1582 329.54688 C 269.80838 330.02648 269.30469 330.26758 268.64453 330.26758 C 267.97309 330.26758 267.45898 330.02648 267.10352 329.54688 C 266.75369 329.06163 266.57812 328.36545 266.57812 327.45703 C 266.57812 326.54861 266.75369 325.8546 267.10352 325.375 C 267.45898 324.88976 267.97309 324.64648 268.64453 324.64648 z M 319.88281 324.64648 C 320.54297 324.64648 321.04666 324.88976 321.39648 325.375 C 321.74631 325.8546 321.92188 326.54861 321.92188 327.45703 C 321.92188 328.36545 321.74631 329.06163 321.39648 329.54688 C 321.04666 330.02648 320.54297 330.26758 319.88281 330.26758 C 319.21137 330.26758 318.69727 330.02648 318.3418 329.54688 C 317.99197 329.06163 317.81641 328.36545 317.81641 327.45703 C 317.81641 326.54861 317.99197 325.8546 318.3418 325.375 C 318.69727 324.88976 319.21137 324.64648 319.88281 324.64648 z M 49.886719 324.68164 C 50.53559 324.68164 51.028646 324.91862 51.367188 325.39258 C 51.711372 325.86654 51.884766 326.55425 51.884766 327.45703 C 51.884766 328.35981 51.711372 329.04753 51.367188 329.52148 C 51.028646 329.99544 50.53559 330.23242 49.886719 330.23242 C 49.237847 330.23242 48.738498 329.99544 48.388672 329.52148 C 48.044488 329.04188 47.873047 328.35417 47.873047 327.45703 C 47.873047 326.5599 48.044488 325.87435 48.388672 325.40039 C 48.738498 324.92079 49.237847 324.68164 49.886719 324.68164 z M 155.95117 324.68164 C 156.58312 324.68164 157.074 324.91233 157.42383 325.375 C 157.77365 325.83767 157.94922 326.49154 157.94922 327.33789 C 157.94922 328.1786 157.77365 328.8303 157.42383 329.29297 C 157.074 329.75564 156.58312 329.98828 155.95117 329.98828 C 155.3023 329.98828 154.80924 329.76411 154.4707 329.31836 C 154.13216 328.86697 153.96289 328.20681 153.96289 327.33789 C 153.96289 326.49154 154.13845 325.83767 154.48828 325.375 C 154.83811 324.91233 155.32487 324.68164 155.95117 324.68164 z M 298.86719 324.68164 C 299.51606 324.68164 300.00911 324.91862 300.34766 325.39258 C 300.69184 325.86654 300.86523 326.55425 300.86523 327.45703 C 300.86523 328.35981 300.69184 329.04753 300.34766 329.52148 C 300.00911 329.99544 299.51606 330.23242 298.86719 330.23242 C 298.22396 330.23242 297.7309 329.99544 297.38672 329.52148 C 297.04818 329.04753 296.87891 328.35981 296.87891 327.45703 C 296.87891 326.55425 297.04818 325.86654 297.38672 325.39258 C 297.7309 324.91862 298.22396 324.68164 298.86719 324.68164 z M 102.64844 327.92188 L 104.22266 327.92188 L 104.22266 328.26953 C 104.22266 328.88455 104.02799 329.39865 103.63867 329.81055 C 103.24935 330.2168 102.7691 330.41992 102.19922 330.41992 C 101.74219 330.41992 101.38455 330.31207 101.125 330.09766 C 100.87109 329.8776 100.74414 329.57509 100.74414 329.19141 C 100.74414 328.77387 100.90278 328.45855 101.21875 328.24414 C 101.54036 328.02973 102.01649 327.92187 102.64844 327.92188 z M 126.32031 327.92188 L 127.89453 327.92188 L 127.89453 328.26953 C 127.89453 328.88455 127.69987 329.39865 127.31055 329.81055 C 126.92122 330.2168 126.44293 330.41992 125.87305 330.41992 C 125.41602 330.41992 125.05642 330.31207 124.79688 330.09766 C 124.54297 329.8776 124.41602 329.57509 124.41602 329.19141 C 124.41602 328.77387 124.57465 328.45855 124.89062 328.24414 C 125.21224 328.02973 125.68837 327.92187 126.32031 327.92188 z M 144.05273 327.92188 L 145.62695 327.92188 L 145.62695 328.26953 C 145.62695 328.88455 145.43229 329.39865 145.04297 329.81055 C 144.65365 330.2168 144.17339 330.41992 143.60352 330.41992 C 143.14648 330.41992 142.78885 330.31207 142.5293 330.09766 C 142.27539 329.8776 142.14844 329.57509 142.14844 329.19141 C 142.14844 328.77387 142.30512 328.45855 142.62109 328.24414 C 142.94271 328.02973 143.42079 327.92187 144.05273 327.92188 z M 240.375 327.92188 L 241.94922 327.92188 L 241.94922 328.26953 C 241.94922 328.88455 241.75456 329.39865 241.36523 329.81055 C 240.97591 330.2168 240.49761 330.41992 239.92773 330.41992 C 239.4707 330.41992 239.11111 330.31207 238.85156 330.09766 C 238.59766 329.8776 238.4707 329.57509 238.4707 329.19141 C 238.4707 328.77387 238.62934 328.45855 238.94531 328.24414 C 239.26693 328.02973 239.74306 327.92187 240.375 327.92188 z "
             transform="matrix(0.18750001,0,0,-0.18750001,-14.87299,24.15971)" />
          <text
             xml:space="preserve"
             transform="matrix(0.1875,0,0,-0.1875,-14.87299,24.15971)"
             id="text126828"
             style="font-size:16px;line-height:1.25;font-family:sans-serif;white-space:pre;shape-inside:url(#rect126830)" />
        </g>
      </g>
    </g>
  </g>
</svg>
