<?xml version="1.0" encoding="UTF-8" standalone="no"?>
<!-- Created with Inkscape (http://www.inkscape.org/) -->

<svg
   width="400"
   height="350"
   viewBox="0 0 105.83334 92.604167"
   version="1.1"
   id="svg5"
   inkscape:version="1.1.2 (0a00cf5339, 2022-02-04)"
   sodipodi:docname="Copla2.svg"
   xmlns:inkscape="http://www.inkscape.org/namespaces/inkscape"
   xmlns:sodipodi="http://sodipodi.sourceforge.net/DTD/sodipodi-0.dtd"
   xmlns="http://www.w3.org/2000/svg"
   xmlns:svg="http://www.w3.org/2000/svg">
  <sodipodi:namedview
     id="namedview7"
     pagecolor="#ffffff"
     bordercolor="#666666"
     borderopacity="1.0"
     inkscape:pageshadow="2"
     inkscape:pageopacity="0"
     inkscape:pagecheckerboard="true"
     inkscape:document-units="px"
     showgrid="false"
     inkscape:zoom="1.4715665"
     inkscape:cx="106.68903"
     inkscape:cy="47.908129"
     inkscape:window-width="1920"
     inkscape:window-height="1080"
     inkscape:window-x="0"
     inkscape:window-y="0"
     inkscape:window-maximized="1"
     inkscape:current-layer="g83"
     inkscape:snap-center="true"
     inkscape:snap-grids="true"
     units="px"
     showborder="true"
     borderlayer="true"
     inkscape:showpageshadow="false"
     inkscape:snap-others="true"
     inkscape:snap-object-midpoints="true"
     inkscape:snap-page="false"
     scale-x="1"
     viewbox-width="400"
     viewbox-height="350"
     inkscape:snap-text-baseline="true"
     inkscape:snap-smooth-nodes="true"
     inkscape:snap-intersection-paths="true"
     inkscape:object-paths="true"
     inkscape:snap-midpoints="true"
     inkscape:object-nodes="true"
     inkscape:snap-nodes="true"
     inkscape:snap-global="true"
     inkscape:snap-bbox="true"
     inkscape:bbox-paths="true"
     inkscape:bbox-nodes="true"
     inkscape:snap-bbox-edge-midpoints="true"
     inkscape:snap-bbox-midpoints="true" />
  <defs
     id="defs2">
    <rect
       x="497.48459"
       y="220.35052"
       width="247.07487"
       height="169.71802"
       id="rect126830" />
  </defs>
  <g
     inkscape:label="Layer 1"
     inkscape:groupmode="layer"
     id="layer1">
    <g
       id="g79"
       transform="matrix(0.35277777,0,0,-0.35277777,5.3069253,8.5921664)">
      <g
         id="g81"
         inkscape:transform-center-x="125.45006"
         inkscape:transform-center-y="-22.903373"
         transform="matrix(4,0,0,4,44.448707,-72.283092)">
        <g
           id="g83">
          <text
             xml:space="preserve"
             style="font-size:1.25px;line-height:1.25;font-family:sans-serif;stroke-width:0.1875"
             x="-20.609663"
             y="-30.459957"
             id="text59482"
             transform="scale(1,-1)"><tspan
               sodipodi:role="line"
               id="tspan59480"
               style="stroke-width:0.1875"
               x="-20.609663"
               y="-30.459957" /></text>
          <text
             xml:space="preserve"
             style="font-style:normal;font-variant:normal;font-weight:normal;font-stretch:normal;font-size:5.49999px;line-height:1.05;font-family:NimbusSanL;-inkscape-font-specification:NimbusSanL;stroke-width:0.188093"
             x="-9.2532911"
             y="19.729437"
             id="text86136-3"
             transform="scale(1.0000003,-0.99999971)"><tspan
               sodipodi:role="line"
               style="font-style:normal;font-variant:normal;font-weight:bold;font-stretch:normal;font-size:5.49999px;font-family:FontAwesome;-inkscape-font-specification:'FontAwesome Bold';stroke-width:0.188093"
               x="-9.2532911"
               y="19.729437"
               id="tspan92298-4">Control de plagas:</tspan><tspan
               sodipodi:role="line"
               style="font-style:normal;font-variant:normal;font-weight:bold;font-stretch:normal;font-size:5.49999px;font-family:FontAwesome;-inkscape-font-specification:'FontAwesome Bold';stroke-width:0.188093"
               x="-9.2532911"
               y="26.039999"
               id="tspan207536">•Fumigación </tspan><tspan
               sodipodi:role="line"
               style="font-style:normal;font-variant:normal;font-weight:bold;font-stretch:normal;font-size:5.49999px;font-family:FontAwesome;-inkscape-font-specification:'FontAwesome Bold';stroke-width:0.188093"
               x="-9.2532911"
               y="32.350563"
               id="tspan47103">•Manejo de residuos</tspan><tspan
               sodipodi:role="line"
               style="font-style:normal;font-variant:normal;font-weight:bold;font-stretch:normal;font-size:3.25px;font-family:FontAwesome;-inkscape-font-specification:'FontAwesome Bold';stroke-width:0.188093"
               x="-9.2532911"
               y="38.125553"
               id="tspan54673">Apoyo a la agricultura con drones </tspan><tspan
               sodipodi:role="line"
               style="font-style:normal;font-variant:normal;font-weight:bold;font-stretch:normal;font-size:3.25px;font-family:FontAwesome;-inkscape-font-specification:'FontAwesome Bold';stroke-width:0.188093"
               x="-9.2532911"
               y="43.900543"
               id="tspan45163" /><tspan
               sodipodi:role="line"
               style="font-style:normal;font-variant:normal;font-weight:bold;font-stretch:normal;font-size:5.49999px;font-family:FontAwesome;-inkscape-font-specification:'FontAwesome Bold';stroke-width:0.188093"
               x="-9.2532911"
               y="49.675529"
               id="tspan197802" /></text>
          <text
             xml:space="preserve"
             transform="matrix(0.1875,0,0,-0.1875,-14.87299,24.15971)"
             id="text126828"
             style="font-size:16px;line-height:1.25;font-family:sans-serif;white-space:pre;shape-inside:url(#rect126830)" />
          <path
             id="path28378"
             style="fill:#000000;stroke-width:0.254668"
             d="m 16.022278,23.578201 a 8.9133866,2.2283467 45.100257 0 1 -7.2187194,-4.93123 8.9133866,2.2283467 45.100257 0 1 -4.7133352,-7.886788 8.9133866,2.2283467 45.100257 0 1 6.2468076,3.212713 l 1.901053,-1.901067 A 17.826703,8.9134218 0 0 1 4.8039894,4.8306722 17.826703,8.9134218 0 0 1 12.23858,-2.4099913 L 10.331562,-4.3170257 A 2.2283466,8.9133865 45.099743 0 1 4.0738101,-1.1262 a 2.2283466,8.9133865 45.099743 0 1 4.7406904,-7.870373 2.2283466,8.9133865 45.099743 0 1 7.8867235,-4.71337 2.2283466,8.9133865 45.099743 0 1 -3.212187,6.2473549 l 3.794141,3.7941729 a 17.826703,8.9134218 0 0 1 5.347513,-0.4143348 17.826703,8.9134218 0 0 1 5.350497,0.4113505 l 3.797129,-3.7971574 a 8.9133866,2.2283467 45.100257 0 1 -3.190803,-6.2578001 8.9133866,2.2283467 45.100257 0 1 7.870311,4.740727 8.9133866,2.2283467 45.100257 0 1 4.713333,7.8867871 8.9133866,2.2283467 45.100257 0 1 -6.246806,-3.2127114 L 33.0233,-2.4104886 a 17.826703,8.9134218 0 0 1 7.434093,7.2411608 17.826703,8.9134218 0 0 1 -7.43459,7.2406598 l 1.90702,1.907035 a 2.2283466,8.9133865 45.099743 0 1 6.257749,-3.190825 2.2283466,8.9133865 45.099743 0 1 -4.740689,7.870371 2.2283466,8.9133865 45.099743 0 1 -7.886725,4.713369 2.2283466,8.9133865 45.099743 0 1 3.212687,-6.246856 l -3.79464,-3.794669 a 17.826703,8.9134218 0 0 1 -5.347514,0.414334 17.826703,8.9134218 0 0 1 -5.350497,-0.41135 l -3.79663,3.796658 a 8.9133866,2.2283467 45.100257 0 1 3.190301,6.258297 8.9133866,2.2283467 45.100257 0 1 -0.651587,0.190505 z M 28.514895,8.2473171 H 30.05832 V 1.5393707 H 28.514895 Z M 12.68574,8.0921283 c 0.359232,0 0.704093,-0.040412 1.034586,-0.120875 0.330491,-0.080475 0.648385,-0.1995675 0.953012,-0.3576313 V 6.281588 c -0.307502,0.209793 -0.610859,0.3633797 -0.909739,0.4610912 -0.29888,0.097711 -0.613567,0.1467328 -0.944058,0.1467328 -0.592013,0 -1.057578,-0.1896748 -1.396693,-0.569026 -0.339112,-0.3793525 -0.508834,-0.9025608 -0.508834,-1.5692997 0,-0.6638648 0.169722,-1.1854707 0.508834,-1.5648232 0.339115,-0.3793511 0.80468,-0.5690259 1.396693,-0.5690259 0.330491,0 0.645178,0.049019 0.944058,0.1467328 0.29888,0.097711 0.602237,0.251298 0.909739,0.4610911 V 1.8930229 C 14.368711,1.7349599 14.050817,1.6158602 13.720326,1.5353915 13.389833,1.4549229 13.044972,1.4145235 12.68574,1.4145235 c -1.071945,0 -1.921168,0.2990477 -2.547667,0.8968134 -0.6264975,0.60064 -0.939582,1.4137776 -0.939582,2.4397508 0,1.0288468 0.3130845,1.8419845 0.939582,2.4397506 0.626499,0.6006387 1.475722,0.90129 2.547667,0.90129 z m 9.427659,-0.1163875 h 2.754584 c 0.819045,0 1.447315,-0.1826563 1.884137,-0.5476375 0.439699,-0.3621088 0.65955,-0.8794046 0.65955,-1.5518915 0,-0.6753594 -0.219851,-1.1953639 -0.65955,-1.5603449 C 26.315298,3.9537585 25.687028,3.7727044 24.867983,3.7727044 h -1.09477 V 1.5393707 h -1.659814 z m 1.659814,-1.20272 V 4.9754153 h 0.918193 c 0.32187,0 0.570293,0.077596 0.745598,0.2327839 0.175305,0.158062 0.263122,0.3806207 0.263122,0.6680085 0,0.2873877 -0.08783,0.5088412 -0.263122,0.6640305 -0.175305,0.1551892 -0.423728,0.2327826 -0.745598,0.2327826 z M 18.276979,6.4840317 c 0.83054,0 1.47876,-0.2241619 1.944321,-0.6724855 0.468439,-0.4483248 0.702325,-1.0690792 0.702325,-1.8622684 0,-0.7931893 -0.233886,-1.4139449 -0.702325,-1.8622686 -0.465561,-0.4483245 -1.113781,-0.6724858 -1.944321,-0.6724858 -0.833418,0 -1.485949,0.2241613 -1.957258,0.6724858 -0.468437,0.4483237 -0.702323,1.0690793 -0.702323,1.8622686 0,0.7931892 0.233886,1.4139436 0.702323,1.8622684 0.471309,0.4483236 1.12384,0.6724855 1.957258,0.6724855 z m 15.320318,0 c 0.870773,0 1.499043,-0.172432 1.884138,-0.5172977 C 35.869404,5.6247439 36.06339,5.0670487 36.06339,4.2939763 V 1.5393707 H 34.507034 V 2.2551305 C 34.300118,1.9619954 34.067333,1.7480582 33.808692,1.6129864 33.550043,1.480788 33.235355,1.4145234 32.864633,1.4145234 c -0.50005,0 -0.906869,0.1449642 -1.220118,0.4352255 -0.310373,0.2931351 -0.465561,0.6724851 -0.465561,1.1380529 0,0.5661533 0.193985,0.9815927 0.581953,1.2459882 0.390842,0.2643969 1.002973,0.3964297 1.83639,0.3964297 h 0.909737 v 0.1208687 c 0,0.2442788 -0.09644,0.4226245 -0.288986,0.5347061 -0.192548,0.1149475 -0.492699,0.1720994 -0.900786,0.1720994 -0.330492,0 -0.63816,-0.032883 -0.922672,-0.098989 -0.284508,-0.066105 -0.548573,-0.1652467 -0.79285,-0.2974452 v 1.1768497 c 0.330492,0.080461 0.662423,0.1408205 0.995789,0.1810543 0.333364,0.04311 0.666401,0.064665 0.999768,0.064666 z M 18.276979,5.3802998 c -0.341988,0 -0.603346,-0.1234088 -0.784396,-0.3705633 -0.178179,-0.2442801 -0.2676,-0.597765 -0.2676,-1.0604587 0,-0.4626939 0.08943,-0.8177828 0.2676,-1.0649355 0.18105,-0.2442787 0.442408,-0.3660866 0.784396,-0.3660866 0.336239,0 0.593281,0.1218062 0.77146,0.3660866 0.17818,0.2471527 0.267599,0.6022416 0.267599,1.0649355 0,0.4626937 -0.08941,0.8161786 -0.267599,1.0604587 -0.178179,0.2471527 -0.435221,0.3705633 -0.77146,0.3705633 z M 33.705233,3.7120171 c -0.321871,0 -0.564878,-0.054439 -0.728689,-0.1636443 -0.160932,-0.1092025 -0.241237,-0.2703093 -0.241237,-0.4829764 0,-0.1954229 0.06466,-0.3490095 0.193985,-0.4610909 0.132196,-0.1092025 0.314853,-0.1636444 0.547633,-0.1636444 0.29026,0 0.534372,0.1034563 0.732667,0.3103785 0.198295,0.2097917 0.297442,0.4711488 0.297442,0.7844 v 0.1765775 z" />
        </g>
      </g>
    </g>
  </g>
</svg>
