<?xml version="1.0" encoding="UTF-8" standalone="no"?>
<!-- Created with Inkscape (http://www.inkscape.org/) -->

<svg
   width="400"
   height="350"
   viewBox="0 0 105.83334 92.604167"
   version="1.1"
   id="svg5"
   inkscape:version="1.1.2 (0a00cf5339, 2022-02-04)"
   sodipodi:docname="Copla3.svg"
   xmlns:inkscape="http://www.inkscape.org/namespaces/inkscape"
   xmlns:sodipodi="http://sodipodi.sourceforge.net/DTD/sodipodi-0.dtd"
   xmlns="http://www.w3.org/2000/svg"
   xmlns:svg="http://www.w3.org/2000/svg">
  <sodipodi:namedview
     id="namedview7"
     pagecolor="#ffffff"
     bordercolor="#666666"
     borderopacity="1.0"
     inkscape:pageshadow="2"
     inkscape:pageopacity="0"
     inkscape:pagecheckerboard="true"
     inkscape:document-units="px"
     showgrid="false"
     inkscape:zoom="1.8156953"
     inkscape:cx="187.80684"
     inkscape:cy="188.63297"
     inkscape:window-width="1920"
     inkscape:window-height="1080"
     inkscape:window-x="0"
     inkscape:window-y="0"
     inkscape:window-maximized="1"
     inkscape:current-layer="g83"
     inkscape:snap-center="true"
     inkscape:snap-grids="true"
     units="px"
     showborder="true"
     borderlayer="true"
     inkscape:showpageshadow="false"
     inkscape:snap-others="true"
     inkscape:snap-object-midpoints="true"
     inkscape:snap-page="false"
     scale-x="1"
     viewbox-width="400"
     viewbox-height="350"
     inkscape:snap-text-baseline="true"
     inkscape:snap-smooth-nodes="true"
     inkscape:snap-intersection-paths="true"
     inkscape:object-paths="true"
     inkscape:snap-midpoints="true"
     inkscape:object-nodes="true"
     inkscape:snap-nodes="true"
     inkscape:snap-global="true"
     inkscape:snap-bbox="false"
     inkscape:bbox-paths="true"
     inkscape:bbox-nodes="true"
     inkscape:snap-bbox-edge-midpoints="true"
     inkscape:snap-bbox-midpoints="true" />
  <defs
     id="defs2">
    <rect
       x="497.48459"
       y="220.35052"
       width="247.07487"
       height="169.71802"
       id="rect126830" />
  </defs>
  <g
     inkscape:label="Layer 1"
     inkscape:groupmode="layer"
     id="layer1">
    <g
       id="g79"
       transform="matrix(0.35277777,0,0,-0.35277777,5.3069253,8.5921664)">
      <g
         id="g81"
         inkscape:transform-center-x="125.45006"
         inkscape:transform-center-y="-22.903373"
         transform="matrix(4,0,0,4,44.448707,-72.283092)">
        <g
           id="g83">
          <text
             xml:space="preserve"
             style="font-size:1.25px;line-height:1.25;font-family:sans-serif;stroke-width:0.1875"
             x="-20.609663"
             y="-30.459957"
             id="text59482"
             transform="scale(1,-1)"><tspan
               sodipodi:role="line"
               id="tspan59480"
               style="stroke-width:0.1875"
               x="-20.609663"
               y="-30.459957" /></text>
          <text
             xml:space="preserve"
             style="font-style:normal;font-variant:normal;font-weight:normal;font-stretch:normal;font-size:5.49999px;line-height:1.05;font-family:NimbusSanL;-inkscape-font-specification:NimbusSanL;stroke-width:0.188093"
             x="-9.2532911"
             y="22.241938"
             id="text86136-3"
             transform="scale(1.0000003,-0.99999971)"><tspan
               sodipodi:role="line"
               style="font-style:normal;font-variant:normal;font-weight:bold;font-stretch:normal;font-size:5.49999px;font-family:FontAwesome;-inkscape-font-specification:'FontAwesome Bold';stroke-width:0.188093"
               x="-9.2532911"
               y="22.241938"
               id="tspan92298-4">Control de plagas:</tspan><tspan
               sodipodi:role="line"
               style="font-style:normal;font-variant:normal;font-weight:bold;font-stretch:normal;font-size:5.49999px;font-family:FontAwesome;-inkscape-font-specification:'FontAwesome Bold';stroke-width:0.188093"
               x="-9.2532911"
               y="28.5525"
               id="tspan207536">•Fumigación </tspan><tspan
               sodipodi:role="line"
               style="font-style:normal;font-variant:normal;font-weight:bold;font-stretch:normal;font-size:5.49999px;font-family:FontAwesome;-inkscape-font-specification:'FontAwesome Bold';stroke-width:0.188093"
               x="-9.2532911"
               y="34.863064"
               id="tspan47103">•Manejo de residuos</tspan><tspan
               sodipodi:role="line"
               style="font-style:normal;font-variant:normal;font-weight:bold;font-stretch:normal;font-size:3.25px;font-family:FontAwesome;-inkscape-font-specification:'FontAwesome Bold';stroke-width:0.188093"
               x="-9.2532911"
               y="40.638054"
               id="tspan54673">Apoyo a la agricultura con drones </tspan><tspan
               sodipodi:role="line"
               style="font-style:normal;font-variant:normal;font-weight:bold;font-stretch:normal;font-size:3.25px;font-family:FontAwesome;-inkscape-font-specification:'FontAwesome Bold';stroke-width:0.188093"
               x="-9.2532911"
               y="46.413044"
               id="tspan45163" /><tspan
               sodipodi:role="line"
               style="font-style:normal;font-variant:normal;font-weight:bold;font-stretch:normal;font-size:5.49999px;font-family:FontAwesome;-inkscape-font-specification:'FontAwesome Bold';stroke-width:0.188093"
               x="-9.2532911"
               y="52.188034"
               id="tspan197802" /></text>
          <text
             xml:space="preserve"
             transform="matrix(0.1875,0,0,-0.1875,-14.87299,24.15971)"
             id="text126828"
             style="font-size:16px;line-height:1.25;font-family:sans-serif;white-space:pre;shape-inside:url(#rect126830)" />
          <text
             xml:space="preserve"
             style="font-style:normal;font-variant:normal;font-weight:normal;font-stretch:normal;font-size:7px;line-height:0.85;font-family:NimbusSanL;-inkscape-font-specification:NimbusSanL;fill:#000000;stroke-width:0.188095"
             x="-7.1220078"
             y="-2.8000844"
             id="text86136"
             transform="scale(0.999999,-1.000001)"><tspan
               style="font-style:normal;font-variant:normal;font-weight:bold;font-stretch:normal;font-size:7px;font-family:fon;-inkscape-font-specification:'fon Bold';fill:#000000;stroke-width:0.188095"
               x="-7.1220078"
               y="-2.8000844"
               id="tspan92298"
               sodipodi:role="line">CoPla</tspan></text>
          <path
             id="path35108"
             style="fill:#000000;stroke-width:0.140625"
             d="m 46.064515,24.159709 a 14.062501,14.062501 0 0 1 -14.062502,-14.0625 14.062501,14.062501 0 0 1 14.062502,-14.062501 14.062501,14.062501 0 0 1 14.0625,14.062501 14.062501,14.062501 0 0 1 -14.0625,14.0625 z m -3.641418,-3.714203 a 4.9218754,1.2304688 45 0 0 0.3598,-0.106019 4.9218754,1.2304688 45 0 0 -1.767975,-3.452453 l 2.095094,-2.095092 a 9.8437508,4.9218754 0 0 0 2.954499,0.227142 9.8437508,4.9218754 0 0 0 2.952849,-0.228791 l 2.097016,2.097016 a 1.2304688,4.9218754 45 0 0 -1.768251,3.452178 1.2304688,4.9218754 45 0 0 4.350587,-2.610076 1.2304688,4.9218754 45 0 0 2.610078,-4.350586 1.2304688,4.9218754 45 0 0 -3.45218,1.768249 l -1.051665,-1.051666 a 9.8437508,4.9218754 0 0 0 4.105316,-3.998199 9.8437508,4.9218754 0 0 0 -4.105043,-3.9984753 l 1.051392,-1.051392 A 4.9218754,1.2304688 45 0 0 56.306794,6.815592 4.9218754,1.2304688 45 0 0 53.696716,2.4650056 4.9218754,1.2304688 45 0 0 49.346129,-0.14507205 4.9218754,1.2304688 45 0 0 51.11438,3.3071078 L 49.019012,5.402475 A 9.8437508,4.9218754 0 0 0 46.064515,5.175333 9.8437508,4.9218754 0 0 0 43.111664,5.4041235 L 41.014922,3.3073816 A 1.2304688,4.9218754 45 0 0 42.782897,-0.14507205 1.2304688,4.9218754 45 0 0 38.432312,2.4650056 1.2304688,4.9218754 45 0 0 35.822234,6.815592 1.2304688,4.9218754 45 0 0 39.274414,5.0473417 L 40.32608,6.099009 a 9.8437508,4.9218754 0 0 0 -4.105315,3.9982 9.8437508,4.9218754 0 0 0 4.105039,3.998474 l -1.05139,1.051391 a 4.9218754,1.2304688 45 0 0 -3.45218,-1.768249 4.9218754,1.2304688 45 0 0 2.610078,4.350586 4.9218754,1.2304688 45 0 0 3.990785,2.716095 z" />
          <path
             id="path35108-0"
             style="fill:#000000;stroke-width:0.0937503"
             d="m 29.552681,1.8152287 a 9.3750005,9.3750004 0 0 1 -9.375001,-9.375 9.3750005,9.3750004 0 0 1 9.375001,-9.3750007 9.3750005,9.3750004 0 0 1 9.375,9.3750007 9.3750005,9.3750004 0 0 1 -9.375,9.375 z m -2.427612,-2.47613514 a 3.2812502,0.82031253 45 0 0 0.239867,-0.07068 3.2812502,0.82031253 45 0 0 -1.17865,-2.30163586 l 1.396729,-1.396729 a 6.5625005,3.2812502 0 0 0 1.969666,0.151429 6.5625005,3.2812502 0 0 0 1.968566,-0.152527 l 1.398011,1.39801 a 0.82031253,3.2812502 45 0 0 -1.178834,2.30145286 0.82031253,3.2812502 45 0 0 2.900391,-1.74005086 0.82031253,3.2812502 45 0 0 1.740052,-2.900391 0.82031253,3.2812502 45 0 0 -2.301453,1.178833 l -0.70111,-0.701111 a 6.5625005,3.2812502 0 0 0 2.736877,-2.665466 6.5625005,3.2812502 0 0 0 -2.736695,-2.6656507 l 0.700928,-0.700927 a 3.2812502,0.82031253 45 0 0 2.301453,1.1788324 3.2812502,0.82031253 45 0 0 -1.740052,-2.9003904 3.2812502,0.82031253 45 0 0 -2.900391,-1.740052 3.2812502,0.82031253 45 0 0 1.178834,2.301454 l -1.396912,1.39691 a 6.5625005,3.2812502 0 0 0 -1.969665,-0.151427 6.5625005,3.2812502 0 0 0 -1.968567,0.152526 l -1.397828,-1.397826 a 0.82031253,3.2812502 45 0 0 1.17865,-2.301637 0.82031253,3.2812502 45 0 0 -2.90039,1.740052 0.82031253,3.2812502 45 0 0 -1.740052,2.9003904 0.82031253,3.2812502 45 0 0 2.301453,-1.1788324 l 0.701111,0.70111 a 6.5625005,3.2812502 0 0 0 -2.736877,2.6654677 6.5625005,3.2812502 0 0 0 2.736693,2.665649 l -0.700927,0.700928 a 3.2812502,0.82031253 45 0 0 -2.301453,-1.178833 3.2812502,0.82031253 45 0 0 1.740052,2.900391 3.2812502,0.82031253 45 0 0 2.660523,1.81073086 z" />
          <path
             id="path35108-0-9"
             style="fill:#000000;stroke-width:0.1875"
             d="M 3.8770118,24.15971 A 18.750001,18.750001 0 0 1 -14.87299,5.4097085 18.750001,18.750001 0 0 1 3.8770118,-13.340292 18.750001,18.750001 0 0 1 22.627013,5.4097085 18.750001,18.750001 0 0 1 3.8770118,24.15971 Z m -4.85522404,-4.952271 a 6.5625005,1.6406251 45 0 0 0.479735,-0.141358 6.5625005,1.6406251 45 0 0 -2.35729996,-4.603271 l 2.79345696,-2.793458 a 13.125001,6.5625005 0 0 0 3.93933204,0.302857 13.125001,6.5625005 0 0 0 3.9371329,-0.305054 l 2.7960213,2.796021 a 1.6406251,6.5625005 45 0 0 -2.3576673,4.602905 1.6406251,6.5625005 45 0 0 5.8007823,-3.480102 1.6406251,6.5625005 45 0 0 3.480103,-5.8007815 1.6406251,6.5625005 45 0 0 -4.602906,2.3576655 l -1.40222,-1.402222 a 13.125001,6.5625005 0 0 0 5.473755,-5.3309325 13.125001,6.5625005 0 0 0 -5.47339,-5.33130005 l 1.401855,-1.40185495 a 6.5625005,1.6406251 45 0 0 4.602906,2.357666 6.5625005,1.6406251 45 0 0 -3.480103,-5.800782 6.5625005,1.6406251 45 0 0 -5.8007823,-3.4801025 6.5625005,1.6406251 45 0 0 2.3576673,4.6029055 L 7.8163427,-0.84993655 A 13.125001,6.5625005 0 0 0 3.8770118,-1.1527915 13.125001,6.5625005 0 0 0 -0.06012224,-0.84773855 L -2.8557772,-3.6433945 a 1.6406251,6.5625005 45 0 0 2.35729996,-4.6032705 1.6406251,6.5625005 45 0 0 -5.80078096,3.4801025 1.6406251,6.5625005 45 0 0 -3.4801025,5.800782 1.6406251,6.5625005 45 0 0 4.6029045,-2.357666 l 1.402223,1.40222195 a 13.125001,6.5625005 0 0 0 -5.4737545,5.33093305 13.125001,6.5625005 0 0 0 5.4733865,5.3312985 l -1.401855,1.401856 a 6.5625005,1.6406251 45 0 0 -4.6029045,-2.3576655 6.5625005,1.6406251 45 0 0 3.4801025,5.8007815 6.5625005,1.6406251 45 0 0 5.32104596,3.62146 z" />
        </g>
      </g>
    </g>
  </g>
</svg>
